# Blender 4.2.2 LTS
# www.blender.org
mtllib RightTemo.mtl
o 右もも
v 0.507305 -0.412094 1.214072
v 0.094397 0.086520 1.360988
v 0.281957 -0.488844 1.536793
v 0.635426 -0.406005 1.669341
v 0.636713 0.179310 1.493372
v 0.746045 -0.290555 1.504809
v 0.707421 -0.378893 1.429151
v 0.218446 0.224964 1.515356
v 0.168976 0.041549 1.638895
v 0.553693 0.224246 1.560078
v 0.624111 -0.468511 1.511068
v 0.130475 0.062944 1.288406
v 0.217374 -0.160008 1.269672
v 0.669534 -0.089357 1.359442
v 0.648905 0.114192 1.323416
v 0.483485 -0.031115 1.765238
v 0.079401 0.056230 1.406237
v 0.220821 -0.438281 1.498127
v 0.441353 -0.277544 1.797571
v 0.437403 -0.374519 1.758957
v 0.647704 0.244277 1.433703
v 0.210814 0.163527 1.617120
v 0.120633 -0.054204 1.464292
v 0.272492 -0.417278 1.636770
v 0.346421 0.020173 1.759080
v 0.352096 0.156491 1.700568
v 0.656269 -0.314781 1.699272
v 0.713297 -0.266286 1.607476
v 0.496854 0.264487 1.285370
v 0.533300 0.167805 1.238467
v 0.707419 -0.285631 1.391537
v 0.424407 -0.067170 1.169056
v 0.182415 0.139654 1.284752
v 0.367225 -0.551154 1.384481
v 0.319328 -0.494428 1.303457
v 0.470593 -0.405537 1.208168
v 0.325115 0.284271 1.373168
vn -0.4058 -0.0817 -0.9103
vn -0.8673 -0.3050 -0.3933
vn 0.3633 0.5208 0.7725
vn 0.4222 0.0466 0.9053
vn -0.5170 -0.2984 0.8023
vn 0.0039 0.1294 0.9916
vn 0.1043 0.3886 0.9155
vn 0.6496 0.5158 -0.5585
vn -0.0563 0.9285 0.3670
vn 0.8297 -0.5250 0.1894
vn -0.7191 -0.5955 0.3582
vn 0.9366 -0.1311 -0.3251
vn 0.7951 -0.5813 0.1727
vn -0.0164 -0.7180 -0.6958
vn -0.7231 0.4653 -0.5105
vn -0.9039 -0.1506 -0.4004
vn 0.7270 -0.2568 -0.6368
vn 0.6656 0.0016 -0.7463
vn -0.0142 -0.8854 0.4645
vn 0.5058 -0.7890 -0.3488
vn -0.9241 -0.1634 0.3455
vn -0.4596 0.3664 0.8090
vn 0.3359 -0.3620 0.8695
vn 0.8742 -0.3293 0.3567
vn -0.6456 0.7435 -0.1742
vn 0.6403 0.5002 -0.5830
vn 0.1416 -0.0946 -0.9854
vn -0.2693 0.6817 -0.6803
vn -0.9192 -0.3855 -0.0805
vn -0.0300 0.9303 0.3656
vn 0.1684 0.9797 0.1087
vn -0.8518 0.4307 0.2983
vn -0.9068 -0.2040 0.3689
vn -0.5667 -0.1316 0.8133
vn 0.7731 0.5729 0.2722
vn -0.4251 -0.2183 -0.8784
vn 0.6957 0.4185 0.5838
vn 0.0655 -0.7988 -0.5980
vn -0.6642 -0.7372 -0.1235
vn -0.1498 0.3433 -0.9272
vn 0.6617 0.0051 -0.7498
vn 0.5177 0.0128 -0.8555
vn 0.5629 -0.0884 -0.8218
vn 0.4616 -0.7000 0.5448
vn 0.1220 -0.9261 0.3570
vn -0.0004 -0.9437 0.3307
vn 0.4324 -0.8393 -0.3295
vn -0.5055 0.3167 0.8026
vn 0.3357 -0.3602 0.8704
vn 0.8711 -0.3210 0.3716
vn -0.6204 0.7622 -0.1850
vn -0.8671 -0.3042 -0.3944
vn -0.8890 -0.2648 -0.3735
vn -0.2461 0.8378 0.4873
vn -0.0125 0.9890 0.1475
vn -0.6193 0.7317 0.2846
vn -0.9291 0.3432 0.1375
vn -0.9080 -0.2065 0.3646
vn -0.6388 -0.1051 0.7622
vn 0.9924 0.0848 -0.0892
vn 0.6931 0.3260 0.6430
vn 0.9793 0.0193 0.2014
vn 0.9402 0.1300 -0.3150
vn 0.7300 0.3021 0.6131
vn 0.8736 0.4557 0.1709
vn 0.8985 -0.1030 0.4267
vn -0.3740 -0.1567 -0.9141
vn -0.6253 -0.7798 -0.0311
vn -0.3080 0.1639 -0.9372
vn -0.1510 0.3848 -0.9106
vt 0.493090 0.882913
vt 0.430391 0.901542
vt 0.360150 0.724451
vt 0.409122 0.934731
vt 0.486763 0.298555
vt 0.427972 0.365933
vt 0.425084 0.259109
vt 0.588336 0.364465
vt 0.576738 0.233725
vt 0.600706 0.192358
vt 0.586888 0.101652
vt 0.462605 0.227744
vt 0.359215 0.626448
vt 0.437121 0.585056
vt 0.406595 0.638783
vt 0.276051 0.523818
vt 0.266629 0.644424
vt 0.159015 0.538899
vt 0.619183 0.455817
vt 0.593619 0.466784
vt 0.609183 0.370303
vt 0.593942 0.041273
vt 0.612157 0.392173
vt 0.618742 0.550772
vt 0.638048 0.575082
vt 0.596897 0.579623
vt 0.681250 0.550000
vt 0.713739 0.587383
vt 0.590079 0.790272
vt 0.593105 0.876777
vt 0.589076 0.793959
vt 0.217143 0.742711
vt 0.188432 0.730893
vt 0.241473 0.727820
vt 0.169664 0.734553
vt 0.512833 0.580986
vt 0.613982 0.887950
vt 0.455088 0.034707
vt 0.125908 0.624424
vt 0.308012 0.368042
vt 0.149486 0.613724
vt 0.592691 0.343788
vt 0.581529 0.421397
vt 0.590591 0.498287
vt 0.190971 0.634667
vt 0.378612 0.551810
vt 0.474780 0.745322
vt 0.435775 0.121426
vt 0.330304 0.516170
vt 0.343234 0.536877
vt 0.615625 0.040625
vt 0.596898 0.949310
vt 0.424887 0.516752
vt 0.437993 0.461136
vt 0.611411 0.061634
s 0
usemtl マテリアル.013
f 13/1/1 12/2/1 32/3/1
f 13/1/2 17/4/2 12/2/2
f 16/5/3 10/6/3 26/7/3
f 27/8/4 16/5/4 19/9/4
f 20/10/5 19/9/5 24/11/5
f 19/9/6 16/5/6 25/12/6
f 16/5/7 26/7/7 25/12/7
f 29/13/8 15/14/8 30/15/8
f 10/16/9 37/17/9 26/18/9
f 7/19/10 6/20/10 4/21/10
f 18/22/11 3/23/11 24/11/11
f 6/24/12 7/25/12 31/26/12
f 4/27/13 11/28/13 7/25/13
f 1/29/14 35/30/14 36/31/14
f 12/32/15 2/33/15 33/34/15
f 2/33/16 12/32/16 17/35/16
f 7/25/17 1/29/17 31/26/17
f 14/36/18 1/29/18 30/15/18
f 34/37/19 4/21/19 24/11/19
f 11/28/20 1/29/20 7/25/20
f 23/38/21 9/39/21 17/40/21
f 22/41/22 25/12/22 26/18/22
f 27/42/23 20/10/23 4/21/23
f 28/43/24 4/21/24 6/44/24
f 33/34/25 8/45/25 37/17/25
f 29/13/26 21/46/26 15/14/26
f 36/31/27 32/47/27 1/29/27
f 33/34/28 37/17/28 29/13/28
f 35/30/29 23/38/29 17/4/29
f 8/45/30 26/18/30 37/17/30
f 10/16/31 29/13/31 37/17/31
f 9/39/32 8/45/32 2/33/32
f 24/11/33 23/38/33 18/22/33
f 24/11/34 25/12/34 9/48/34
f 14/36/35 16/5/35 28/43/35
f 13/1/36 36/31/36 35/30/36
f 10/16/37 5/49/37 21/50/37
f 1/29/38 34/37/38 35/30/38
f 34/51/39 18/52/39 35/30/39
f 33/34/40 30/15/40 32/3/40
f 14/36/41 31/26/41 1/29/41
f 1/29/42 32/47/42 30/15/42
f 30/15/43 15/14/43 14/36/43
f 24/11/44 3/23/44 34/37/44
f 34/37/45 11/28/45 4/21/45
f 4/21/46 20/10/46 24/11/46
f 11/28/47 34/37/47 1/29/47
f 22/41/48 9/39/48 25/12/48
f 27/42/49 19/9/49 20/10/49
f 28/43/50 27/8/50 4/21/50
f 33/34/51 2/33/51 8/45/51
f 17/4/52 13/1/52 35/30/52
f 35/30/53 18/22/53 23/38/53
f 8/45/54 22/41/54 26/18/54
f 10/16/55 21/50/55 29/13/55
f 2/33/56 17/40/56 9/39/56
f 9/39/57 22/41/57 8/45/57
f 24/11/58 9/48/58 23/38/58
f 24/11/59 19/9/59 25/12/59
f 14/36/60 15/14/60 21/53/60
f 5/54/61 10/6/61 16/5/61
f 14/36/62 21/53/62 5/54/62
f 6/44/63 31/26/63 14/36/63
f 16/5/64 27/8/64 28/43/64
f 28/43/65 6/44/65 14/36/65
f 14/36/66 5/54/66 16/5/66
f 13/1/67 32/47/67 36/31/67
f 34/51/68 3/55/68 18/52/68
f 32/3/69 12/32/69 33/34/69
f 33/34/70 29/13/70 30/15/70
