# Blender 4.2.2 LTS
# www.blender.org
mtllib RightProtrution.mtl
o 突起物（右）
v -0.527642 1.002750 1.177933
v -0.746153 0.707149 1.527326
v -0.803874 0.794649 1.065830
v -0.452591 0.465901 0.736381
v -0.212549 0.298794 1.065256
v -0.287095 0.527592 0.821910
v -0.348797 0.676294 0.878826
v -0.593199 0.411302 1.364749
v -0.722082 0.410253 1.244268
v -0.281236 0.233313 1.088493
v -0.469977 0.676010 0.845930
v -0.713193 0.784311 1.549523
v -0.712884 0.904834 1.427467
v -0.268323 0.590284 1.055886
v -0.207450 0.513695 1.166019
v -0.465458 0.197182 0.896124
v -0.776532 0.683276 1.493176
v -0.838555 0.829040 1.156468
v -0.601408 0.328092 0.819838
v -0.637510 0.429154 0.820331
v -0.171384 0.318601 1.124914
v -0.634335 0.343382 1.271364
v -0.785247 0.672228 1.382071
v -0.796533 0.649051 1.019234
v -0.575113 0.226300 1.016618
v -0.512263 0.203884 1.102865
v -0.401756 0.370926 0.728512
v -0.319842 0.416785 0.774332
v -0.290653 0.522740 1.354736
v -0.287568 0.616639 1.332619
v -0.309728 0.659910 0.938765
v -0.471522 0.874683 1.386728
v -0.634845 0.721590 1.540354
v -0.730498 0.960585 1.101267
v -0.745842 1.031033 1.217092
v -0.559261 1.019398 1.211109
v -0.454926 0.484717 1.417273
vn 0.2032 0.6965 0.6882
vn -0.8697 0.3524 0.3457
vn 0.1299 -0.9896 0.0615
vn -0.2014 -0.6408 -0.7408
vn -0.8799 -0.3126 -0.3579
vn -0.5569 -0.7658 -0.3217
vn -0.2925 -0.9556 -0.0352
vn 0.9143 0.0642 0.4000
vn 0.1359 -0.7511 0.6461
vn 0.2766 0.4415 -0.8536
vn -0.9214 0.0755 -0.3812
vn 0.7907 0.4756 -0.3854
vn 0.2310 0.4648 -0.8548
vn 0.0434 0.9089 -0.4148
vn -0.0816 -0.2432 0.9665
vn -0.7923 0.1698 0.5861
vn 0.7072 0.6475 -0.2839
vn 0.8477 0.5304 0.0084
vn -0.4955 0.3179 -0.8083
vn 0.1812 0.7165 -0.6737
vn -0.9533 -0.2840 0.1030
vn -0.5842 -0.7804 0.2229
vn -0.3879 -0.1320 -0.9122
vn 0.3575 0.2773 -0.8918
vn -0.0641 -0.4980 0.8648
vn 0.9132 0.0848 0.3986
vn 0.6505 0.7127 0.2623
vn 0.3857 -0.1775 0.9054
vn -0.9884 0.1379 0.0638
vn 0.1546 -0.7507 0.6423
vn 0.4010 -0.6131 0.6807
vn -0.5425 -0.6023 0.5856
vn -0.9643 -0.2607 0.0466
vn -0.8695 -0.4542 -0.1943
vn 0.8597 -0.4899 0.1446
vn 0.0698 0.8602 0.5051
vn 0.6411 -0.7420 -0.1960
vn 0.0179 0.8553 -0.5178
vn -0.7843 0.4785 -0.3949
vn 0.5491 0.2225 0.8056
vn 0.8484 0.5291 0.0146
vn 0.8201 0.5590 0.1224
vn 0.7858 0.6185 -0.0043
vn -0.2022 0.2892 -0.9357
vn -0.3764 0.4036 -0.8339
vn -0.4435 0.4033 -0.8004
vn 0.1105 0.7179 -0.6873
vn -0.6320 -0.7493 0.1975
vn -0.3882 -0.1343 -0.9117
vn 0.3541 0.2639 -0.8972
vn -0.0372 -0.4960 0.8675
vn -0.8688 0.3527 0.3477
vn -0.8723 0.2801 0.4008
vn -0.0684 -0.7923 0.6063
vn 0.2664 -0.6478 0.7137
vn -0.2439 -0.6795 0.6920
vn -0.5845 -0.5118 0.6297
vn -0.9653 -0.2572 0.0465
vn -0.8797 -0.4600 -0.1204
vn 0.9106 0.2393 -0.3369
vn 0.5587 -0.7274 -0.3984
vn 0.7946 0.1330 -0.5924
vn 0.9417 0.2984 -0.1555
vn 0.6138 -0.6530 -0.4437
vn 0.9591 -0.2830 -0.0011
vn 0.5333 0.0750 -0.8426
vn 0.1954 0.8025 0.5637
vn -0.7707 0.4394 -0.4616
vn 0.4093 0.3907 0.8245
vn 0.5439 0.1754 0.8206
vt 0.270336 0.699593
vt 0.248596 0.569439
vt 0.399494 0.688616
vt 0.154513 0.560703
vt 0.809260 0.957153
vt 0.962269 0.815258
vt 0.933309 0.976894
vt 0.655766 0.835548
vt 0.688285 0.981296
vt 0.595685 0.241730
vt 0.622920 0.277772
vt 0.443744 0.236252
vt 0.665823 0.413421
vt 0.583364 0.422111
vt 0.581555 0.507201
vt 0.664846 0.084790
vt 0.659384 0.019842
vt 0.712037 0.044014
vt 0.665823 0.609881
vt 0.462506 0.665823
vt 0.083372 0.312383
vt 0.019168 0.310816
vt 0.019168 0.150339
vt 0.098393 0.836620
vt 0.085130 0.871475
vt 0.019151 0.829602
vt 0.091391 0.356144
vt 0.102445 0.212909
vt 0.296506 0.336732
vt 0.370959 0.193288
vt 0.319370 0.326819
vt 0.878252 0.296213
vt 0.851448 0.350201
vt 0.828917 0.263836
vt 0.191163 0.548965
vt 0.108680 0.408335
vt 0.215861 0.483514
vt 0.312833 0.155293
vt 0.240859 0.019202
vt 0.119019 0.622656
vt 0.019151 0.575227
vt 0.463900 0.517328
vt 0.648244 0.954034
vt 0.619494 0.820476
vt 0.687995 0.758935
vt 0.690046 0.681328
vt 0.686199 0.350350
vt 0.681317 0.222376
vt 0.559808 0.069946
vt 0.331051 0.415930
vt 0.253340 0.888151
vt 0.439421 0.579353
vt 0.550021 0.182635
vt 0.431539 0.445638
vt 0.290828 0.542451
vt 0.827415 0.630454
vt 0.363839 0.869951
vt 0.939959 0.739595
vt 0.981296 0.701501
vt 0.207379 0.922641
vt 0.878252 0.077042
vt 0.117246 0.471375
vt 0.287072 0.057124
vt 0.088434 0.032032
vt 0.294088 0.511882
vt 0.937388 0.626087
vt 0.719155 0.626087
s 0
usemtl マテリアル
f 13/1/1 12/2/1 32/3/1
f 13/1/2 17/4/2 12/2/2
f 16/5/3 10/6/3 26/7/3
f 27/8/4 16/5/4 19/9/4
f 20/10/5 19/11/5 24/12/5
f 19/11/6 16/13/6 25/14/6
f 16/13/7 26/15/7 25/14/7
f 29/16/8 15/17/8 30/18/8
f 10/19/9 37/20/9 26/15/9
f 7/21/10 6/22/10 4/23/10
f 18/24/11 3/25/11 24/26/11
f 6/22/12 7/21/12 31/27/12
f 4/23/13 11/28/13 7/21/13
f 1/29/14 35/30/14 36/31/14
f 12/32/15 2/33/15 33/34/15
f 2/35/16 12/2/16 17/4/16
f 7/21/17 1/29/17 31/27/17
f 14/36/18 1/29/18 30/37/18
f 34/38/19 4/23/19 24/39/19
f 11/28/20 1/29/20 7/21/20
f 23/40/21 9/41/21 17/4/21
f 22/42/22 25/14/22 26/15/22
f 27/8/23 20/43/23 4/44/23
f 28/45/24 4/44/24 6/46/24
f 33/34/25 8/47/25 37/48/25
f 29/16/26 21/49/26 15/17/26
f 36/31/27 32/50/27 1/29/27
f 33/34/28 37/48/28 29/16/28
f 35/51/29 23/40/29 17/4/29
f 8/52/30 26/15/30 37/20/30
f 10/53/31 29/16/31 37/48/31
f 9/54/32 8/52/32 2/55/32
f 24/26/33 23/40/33 18/24/33
f 24/12/34 25/14/34 9/54/34
f 14/56/35 16/5/35 28/45/35
f 13/1/36 36/57/36 35/51/36
f 10/6/37 5/58/37 21/59/37
f 1/29/38 34/38/38 35/30/38
f 34/60/39 18/24/39 35/51/39
f 33/34/40 30/18/40 32/61/40
f 14/36/41 31/27/41 1/29/41
f 1/29/42 32/50/42 30/37/42
f 30/37/43 15/62/43 14/36/43
f 24/39/44 3/63/44 34/38/44
f 34/38/45 11/28/45 4/23/45
f 4/23/46 20/64/46 24/39/46
f 11/28/47 34/38/47 1/29/47
f 22/42/48 9/54/48 25/14/48
f 27/8/49 19/9/49 20/43/49
f 28/45/50 27/8/50 4/44/50
f 33/34/51 2/33/51 8/47/51
f 17/4/52 13/1/52 35/51/52
f 35/51/53 18/24/53 23/40/53
f 8/52/54 22/42/54 26/15/54
f 10/53/55 21/49/55 29/16/55
f 2/55/56 17/65/56 9/54/56
f 9/54/57 22/42/57 8/52/57
f 24/26/58 9/41/58 23/40/58
f 24/12/59 19/11/59 25/14/59
f 14/56/60 15/66/60 21/59/60
f 5/58/61 10/6/61 16/5/61
f 14/56/62 21/59/62 5/58/62
f 6/46/63 31/67/63 14/56/63
f 16/5/64 27/8/64 28/45/64
f 28/45/65 6/46/65 14/56/65
f 14/56/66 5/58/66 16/5/66
f 13/1/67 32/3/67 36/57/67
f 34/60/68 3/25/68 18/24/68
f 32/61/69 12/32/69 33/34/69
f 33/34/70 29/16/70 30/18/70
