# Blender 4.2.2 LTS
# www.blender.org
mtllib LeftSin.mtl
o 左すね
v -0.433048 -0.564516 1.198057
v -0.362534 -0.877155 1.839297
v -0.283703 -0.295490 1.480832
v -0.657293 -0.207781 1.421315
v -0.901405 -0.770922 1.680812
v -0.767159 -0.401661 1.328110
v -0.672427 -0.399097 1.245074
v -0.573802 -0.845423 1.956909
v -0.472505 -0.624084 1.946607
v -0.869331 -0.765046 1.798264
v -0.578009 -0.282813 1.286749
v -0.363726 -0.909633 1.757838
v -0.323816 -0.747836 1.555542
v -0.764731 -0.669877 1.405971
v -0.837930 -0.849618 1.524028
v -0.735355 -0.432039 1.805841
v -0.346140 -0.822789 1.857266
v -0.246960 -0.370269 1.522381
v -0.586934 -0.232176 1.693090
v -0.526582 -0.190535 1.608898
v -0.927806 -0.862228 1.677939
v -0.562375 -0.724482 1.987041
v -0.341457 -0.692078 1.801074
v -0.335372 -0.273977 1.595510
v -0.642482 -0.493257 1.910908
v -0.699574 -0.636901 1.957154
v -0.727040 -0.249423 1.486889
v -0.776562 -0.346530 1.427369
v -0.772905 -1.009785 1.680104
v -0.744973 -0.969060 1.568303
v -0.708783 -0.496081 1.280422
v -0.520313 -0.863589 1.435056
v -0.444498 -0.961671 1.775403
v -0.288047 -0.352887 1.296396
v -0.255109 -0.462346 1.307443
v -0.403608 -0.578843 1.218912
v -0.658351 -0.981688 1.844436
vn 0.6351 -0.6595 -0.4022
vn 0.9757 -0.2182 0.0180
vn -0.7619 0.2934 0.5774
vn -0.6320 0.6795 0.3726
vn 0.3534 0.7127 0.6059
vn -0.3478 0.6431 0.6822
vn -0.5278 0.4431 0.7247
vn -0.6463 -0.6507 -0.3985
vn -0.5059 -0.3221 0.8002
vn -0.5397 0.5931 -0.5975
vn 0.8015 0.5384 0.2601
vn -0.6585 -0.0273 -0.7521
vn -0.4805 0.6144 -0.6257
vn 0.5525 -0.0733 -0.8303
vn 0.5619 -0.7712 0.2992
vn 0.9401 -0.3213 0.1143
vn -0.3277 -0.2126 -0.9205
vn -0.3604 -0.4631 -0.8097
vn 0.2995 0.9332 -0.1988
vn 0.0311 0.3147 -0.9487
vn 0.7741 0.2264 0.5912
vn -0.0093 0.3098 0.9508
vn -0.3756 0.9095 0.1781
vn -0.7054 0.5892 -0.3941
vn 0.2761 -0.7079 0.6501
vn -0.6235 -0.6606 -0.4182
vn 0.2080 -0.6441 -0.7362
vn 0.1201 -0.9891 0.0854
vn 0.9798 0.0482 0.1938
vn -0.5293 -0.3202 0.7857
vn -0.6554 -0.5218 0.5461
vn 0.4597 -0.1698 0.8717
vn 0.7716 0.2716 0.5752
vn 0.3147 0.6078 0.7290
vn -0.9942 -0.0429 0.0986
vn 0.7017 -0.5560 -0.4455
vn -0.9341 0.2625 0.2420
vn 0.4966 0.0621 -0.8658
vn 0.9506 0.2707 -0.1520
vn 0.2417 -0.9167 -0.3180
vn -0.3576 -0.4685 -0.8079
vn -0.2038 -0.5708 -0.7954
vn -0.2062 -0.4771 -0.8543
vn -0.2420 0.9281 -0.2831
vn 0.2300 0.9013 -0.3670
vn 0.3581 0.8735 -0.3298
vn 0.1160 0.3521 -0.9287
vn 0.0558 0.3296 0.9425
vn -0.3764 0.9089 0.1797
vn -0.7101 0.5939 -0.3781
vn 0.2482 -0.7258 0.6416
vn 0.9755 -0.2194 0.0177
vn 0.9709 -0.2312 0.0622
vn -0.3282 -0.1990 0.9234
vn -0.5130 -0.5286 0.6763
vn 0.1184 -0.3436 0.9316
vn 0.6121 -0.2451 0.7518
vn 0.7749 0.2698 0.5717
vn 0.3805 0.5433 0.7483
vn -0.8641 0.0216 -0.5028
vn -0.9048 0.3588 0.2291
vn -0.8980 0.2706 -0.3471
vn -0.7808 -0.1807 -0.5981
vn -0.9166 0.3568 0.1804
vn -0.9965 -0.0314 -0.0770
vn -0.8363 0.4960 -0.2336
vn 0.6428 -0.6126 -0.4599
vn 0.9171 0.3740 -0.1380
vn 0.4564 -0.8228 -0.3388
vn 0.2194 -0.9331 -0.2851
vt 0.493090 0.882913
vt 0.430391 0.901542
vt 0.360150 0.724451
vt 0.409122 0.934731
vt 0.486763 0.298555
vt 0.427972 0.365933
vt 0.425084 0.259109
vt 0.588336 0.364465
vt 0.576738 0.233725
vt 0.600706 0.192358
vt 0.586888 0.101652
vt 0.462605 0.227744
vt 0.359215 0.626448
vt 0.437121 0.585056
vt 0.406595 0.638783
vt 0.276051 0.523818
vt 0.266629 0.644424
vt 0.159015 0.538899
vt 0.619183 0.455817
vt 0.593619 0.466784
vt 0.609183 0.370303
vt 0.593942 0.041273
vt 0.612157 0.392173
vt 0.618742 0.550772
vt 0.638048 0.575082
vt 0.596897 0.579623
vt 0.681250 0.550000
vt 0.713739 0.587383
vt 0.590079 0.790272
vt 0.593105 0.876777
vt 0.589076 0.793959
vt 0.217143 0.742711
vt 0.188432 0.730893
vt 0.241473 0.727820
vt 0.169664 0.734553
vt 0.512833 0.580986
vt 0.613982 0.887950
vt 0.455088 0.034707
vt 0.125908 0.624424
vt 0.308012 0.368042
vt 0.149486 0.613724
vt 0.592691 0.343788
vt 0.581529 0.421397
vt 0.590591 0.498287
vt 0.190971 0.634667
vt 0.378612 0.551810
vt 0.474780 0.745322
vt 0.435775 0.121426
vt 0.330304 0.516170
vt 0.343234 0.536877
vt 0.615625 0.040625
vt 0.596898 0.949310
vt 0.424887 0.516752
vt 0.437993 0.461136
vt 0.611411 0.061634
s 0
usemtl マテリアル.011
f 13/1/1 12/2/1 32/3/1
f 13/1/2 17/4/2 12/2/2
f 16/5/3 10/6/3 26/7/3
f 27/8/4 16/5/4 19/9/4
f 20/10/5 19/9/5 24/11/5
f 19/9/6 16/5/6 25/12/6
f 16/5/7 26/7/7 25/12/7
f 29/13/8 15/14/8 30/15/8
f 10/16/9 37/17/9 26/18/9
f 7/19/10 6/20/10 4/21/10
f 18/22/11 3/23/11 24/11/11
f 6/24/12 7/25/12 31/26/12
f 4/27/13 11/28/13 7/25/13
f 1/29/14 35/30/14 36/31/14
f 12/32/15 2/33/15 33/34/15
f 2/33/16 12/32/16 17/35/16
f 7/25/17 1/29/17 31/26/17
f 14/36/18 1/29/18 30/15/18
f 34/37/19 4/21/19 24/11/19
f 11/28/20 1/29/20 7/25/20
f 23/38/21 9/39/21 17/40/21
f 22/41/22 25/12/22 26/18/22
f 27/42/23 20/10/23 4/21/23
f 28/43/24 4/21/24 6/44/24
f 33/34/25 8/45/25 37/17/25
f 29/13/26 21/46/26 15/14/26
f 36/31/27 32/47/27 1/29/27
f 33/34/28 37/17/28 29/13/28
f 35/30/29 23/38/29 17/4/29
f 8/45/30 26/18/30 37/17/30
f 10/16/31 29/13/31 37/17/31
f 9/39/32 8/45/32 2/33/32
f 24/11/33 23/38/33 18/22/33
f 24/11/34 25/12/34 9/48/34
f 14/36/35 16/5/35 28/43/35
f 13/1/36 36/31/36 35/30/36
f 10/16/37 5/49/37 21/50/37
f 1/29/38 34/37/38 35/30/38
f 34/51/39 18/52/39 35/30/39
f 33/34/40 30/15/40 32/3/40
f 14/36/41 31/26/41 1/29/41
f 1/29/42 32/47/42 30/15/42
f 30/15/43 15/14/43 14/36/43
f 24/11/44 3/23/44 34/37/44
f 34/37/45 11/28/45 4/21/45
f 4/21/46 20/10/46 24/11/46
f 11/28/47 34/37/47 1/29/47
f 22/41/48 9/39/48 25/12/48
f 27/42/49 19/9/49 20/10/49
f 28/43/50 27/8/50 4/21/50
f 33/34/51 2/33/51 8/45/51
f 17/4/52 13/1/52 35/30/52
f 35/30/53 18/22/53 23/38/53
f 8/45/54 22/41/54 26/18/54
f 10/16/55 21/50/55 29/13/55
f 2/33/56 17/40/56 9/39/56
f 9/39/57 22/41/57 8/45/57
f 24/11/58 9/48/58 23/38/58
f 24/11/59 19/9/59 25/12/59
f 14/36/60 15/14/60 21/53/60
f 5/54/61 10/6/61 16/5/61
f 14/36/62 21/53/62 5/54/62
f 6/44/63 31/26/63 14/36/63
f 16/5/64 27/8/64 28/43/64
f 28/43/65 6/44/65 14/36/65
f 14/36/66 5/54/66 16/5/66
f 13/1/67 32/47/67 36/31/67
f 34/51/68 3/55/68 18/52/68
f 32/3/69 12/32/69 33/34/69
f 33/34/70 29/13/70 30/15/70
