# Blender 4.1.1
# www.blender.org
mtllib RightArm.mtl
o å³è…•
v 0.162952 1.170315 -0.023857
v 0.152983 1.133314 -0.029703
v 0.157278 1.147251 0.001932
v 0.178169 1.169300 0.000124
v 0.178880 1.168919 -0.028165
v 0.243885 1.088055 -0.017154
v 0.178309 1.146169 -0.042351
v 0.160233 1.169375 -0.001043
v 0.213436 1.071670 -0.044671
v 0.326377 0.984044 -0.039059
v 0.356691 1.010350 -0.050929
v 0.337846 0.984142 -0.057991
v 0.339332 0.995314 -0.026668
v 0.340230 0.997837 -0.066323
v 0.336669 1.001685 -0.070599
v 0.330098 0.986325 -0.068829
v 0.332962 0.989001 -0.081619
v 0.322158 0.986947 -0.085332
v 0.330600 0.986296 -0.093593
v 0.329822 0.979527 -0.091014
v 0.327598 0.980361 -0.094436
v 0.150588 1.161813 -0.009610
v 0.371714 0.977430 -0.047556
v 0.374571 0.980632 -0.041117
v 0.376790 0.981801 -0.043412
v 0.234871 1.067981 -0.012490
v 0.156722 1.170392 -0.011894
v 0.152428 1.140327 -0.004319
v 0.180934 1.169041 -0.012918
v 0.230710 1.110668 -0.024060
v 0.187347 1.145969 0.006809
v 0.174862 1.130616 -0.041823
v 0.179357 1.160494 -0.038059
v 0.177637 1.141575 0.007475
v 0.219670 1.062379 -0.026811
v 0.173026 1.159003 0.007213
v 0.171891 1.173783 -0.011907
v 0.224262 1.056505 -0.038033
v 0.240385 1.086208 -0.044850
v 0.264194 1.076076 -0.028609
v 0.192915 1.095255 -0.011104
v 0.219089 1.078042 -0.048967
v 0.233131 1.085147 -0.011293
v 0.310936 1.020741 -0.060498
v 0.222513 1.090763 -0.048129
v 0.230885 1.108057 -0.035797
v 0.337673 1.021632 -0.039230
v 0.305605 1.010864 -0.061048
v 0.355604 1.007175 -0.032487
v 0.265119 1.074112 -0.038952
v 0.304037 1.000741 -0.057467
v 0.220464 1.081378 -0.010928
v 0.334486 1.018510 -0.030408
v 0.348289 1.008876 -0.059621
v 0.330605 0.989446 -0.030646
v 0.348849 1.001102 -0.027509
v 0.358664 1.010253 -0.041098
v 0.324118 0.983227 -0.052040
v 0.322975 0.987970 -0.068722
v 0.326723 1.005873 -0.069449
v 0.322692 0.992222 -0.087217
v 0.326103 0.985611 -0.080192
v 0.327149 0.992235 -0.090887
v 0.318507 0.997528 -0.067027
v 0.331595 0.980667 -0.093286
v 0.339381 0.992090 -0.063123
v 0.152646 1.129182 -0.021658
v 0.153659 1.158114 0.000260
v 0.153717 1.162002 -0.026538
v 0.154875 1.145054 -0.034004
v 0.146041 1.146771 -0.017106
v 0.152978 1.130640 -0.012704
v 0.150327 1.145206 -0.028177
v 0.374962 0.983494 -0.047919
v 0.371930 0.976363 -0.043858
v 0.181374 1.162417 0.005461
v 0.173574 1.129122 0.001894
vn 0.5504 0.5124 -0.6591
vn 0.7702 0.5483 0.3260
vn 0.8377 0.5198 0.1673
vn -0.0194 0.9335 0.3580
vn -0.0503 0.5833 0.8107
vn -0.1091 0.7542 -0.6475
vn -0.2152 0.9634 0.1599
vn -0.2167 0.9689 -0.1191
vn -0.4932 -0.2281 -0.8395
vn 0.1389 0.3693 -0.9189
vn 0.2773 0.4956 -0.8231
vn -0.6231 -0.6863 0.3751
vn 0.2439 0.2911 -0.9251
vn -0.1565 -0.9837 0.0891
vn -0.5950 -0.7617 -0.2566
vn 0.7738 0.4573 0.4384
vn 0.2574 -0.2894 0.9219
vn 0.2145 0.6973 -0.6839
vn -0.5656 -0.1197 -0.8159
vn 0.5495 -0.8339 -0.0514
vn 0.9189 -0.2867 -0.2710
vn 0.2828 0.8118 -0.5108
vn -0.2254 -0.9736 -0.0349
vn -0.5704 -0.1940 -0.7981
vn 0.7162 -0.1039 -0.6901
vn -0.8988 -0.4327 0.0709
vn -0.4074 -0.9101 0.0761
vn -0.2209 -0.9654 0.1383
vn 0.4255 -0.9002 -0.0931
vn 0.8342 0.2020 -0.5131
vn 0.5872 0.5925 -0.5515
vn -0.7207 0.6190 -0.3121
vn 0.0931 -0.2190 0.9713
vn -0.5774 -0.7803 0.2403
vn 0.4592 -0.6976 0.5500
vn 0.9615 0.1577 -0.2253
vn -0.6228 0.2024 -0.7558
vn 0.1674 -0.9274 -0.3347
vn -0.0787 -0.8204 0.5663
vn 0.6399 0.3592 -0.6794
vn 0.5090 0.1436 -0.8487
vn 0.3338 -0.2335 -0.9133
vn -0.7610 0.4930 0.4216
vn -0.8227 0.5495 -0.1459
vn -0.7381 0.6065 0.2957
vn -0.9352 0.1160 0.3345
vn -0.9030 -0.0474 0.4271
vn -0.9237 -0.3714 0.0947
vn -0.9339 -0.3006 -0.1935
vn -0.8992 0.2185 -0.3790
vn -0.9275 -0.1641 -0.3358
vn -0.9041 -0.3079 0.2964
vn 0.7640 -0.4376 -0.4742
vn 0.6879 -0.6425 0.3377
vn 0.7353 -0.6386 -0.2271
vn 0.6036 0.2804 0.7464
vn 0.7450 0.6534 -0.1343
vn 0.6349 0.6031 -0.4829
vn 0.2185 0.2653 -0.9391
vn 0.7639 0.6127 0.2026
vn 0.1504 0.1349 0.9794
vn 0.4700 0.8788 0.0822
vn 0.4572 0.8867 -0.0687
vn 0.0073 0.9589 -0.2837
vn -0.7133 -0.6371 -0.2921
vn -0.0725 0.5899 0.8043
vn -0.7001 -0.7090 0.0846
vn -0.3331 0.2929 -0.8962
vn -0.3047 0.5817 -0.7542
vn -0.2775 -0.0590 0.9589
vn -0.5107 -0.5464 0.6638
vn -0.3346 0.2987 0.8938
vn -0.3370 0.0428 -0.9405
vn -0.2195 -0.4247 0.8783
vn -0.3268 -0.2956 0.8977
vn -0.0675 0.0917 -0.9935
vn -0.3367 -0.2672 -0.9029
vn 0.4321 0.7221 -0.5402
vn 0.6989 0.7116 -0.0726
vn 0.4239 0.4978 -0.7566
vn 0.6320 0.5384 0.5574
vn -0.0627 0.0824 -0.9946
vn -0.4133 -0.2279 -0.8816
vn -0.0792 -0.9416 -0.3274
vn 0.5728 0.6854 0.4496
vn 0.5780 0.7982 0.1698
vn -0.5711 -0.8070 0.1502
vn -0.5708 -0.6352 -0.5203
vn 0.1112 -0.0385 0.9931
vn 0.3808 0.3316 0.8632
vn -0.4114 -0.6589 0.6298
vn -0.1571 -0.3834 0.9101
vn 0.8308 0.5402 -0.1341
vn 0.2357 -0.4992 -0.8338
vn 0.1421 -0.5561 -0.8189
vn 0.6427 0.2207 0.7337
vn 0.4581 0.7729 0.4390
vn -0.0529 -0.9615 -0.2697
vn -0.6199 -0.7649 -0.1750
vn -0.3528 0.0768 -0.9325
vn 0.4690 0.8791 -0.0854
vn 0.2944 0.3883 0.8732
vn 0.2291 0.6690 -0.7071
vn -0.4101 0.7658 -0.4953
vn 0.6570 -0.4944 -0.5692
vn 0.0919 -0.5777 0.8111
vn 0.7640 -0.5640 0.3134
vn 0.9762 -0.1468 -0.1594
vn -0.9776 0.0242 -0.2090
vn 0.2768 -0.0035 -0.9609
vn -0.6002 -0.7741 0.2014
vn -0.8798 -0.0786 -0.4688
vn -0.2672 0.2667 -0.9260
vn -0.7089 -0.1294 0.6933
vn -0.7674 0.2139 -0.6045
vn -0.7858 -0.0972 -0.6107
vn -0.5850 0.7497 -0.3094
vn -0.9181 0.3601 -0.1657
vn 0.1518 -0.1886 0.9702
vn 0.4596 0.0828 0.8843
vn 0.7466 0.6568 -0.1059
vn 0.0550 0.0296 0.9980
vn -0.7107 -0.6132 -0.3448
vn -0.6935 -0.7066 0.1407
vn -0.3659 0.3541 -0.8607
vn -0.3390 0.0318 0.9402
vn -0.4978 -0.5836 0.6416
vn -0.0658 -0.3901 0.9184
vn -0.4487 -0.4050 0.7967
vn -0.0718 0.0849 -0.9938
vn -0.3498 -0.2903 -0.8907
vn 0.4764 0.7518 -0.4559
vn 0.7014 0.6979 -0.1448
vn -0.1343 -0.0038 -0.9909
vn -0.4913 -0.2817 -0.8242
vn -0.1065 -0.9570 -0.2698
vn 0.6069 0.7313 0.3112
vn 0.5828 0.8063 -0.1010
vn -0.5672 -0.8019 0.1876
vn 0.0586 -0.1008 0.9932
vn 0.4702 0.5082 0.7216
vn -0.3967 -0.6381 0.6599
vn -0.2441 -0.4739 0.8460
vn 0.8244 0.5429 -0.1601
vn 0.5281 0.1034 0.8428
vn 0.4580 0.7729 0.4391
vn -0.3149 0.2213 -0.9230
vn 0.0561 -0.6161 0.7857
vt 0.312500 0.614583
vt 0.312500 0.623698
vt 0.312500 0.622879
vt 0.312500 0.572917
vt 0.312500 0.593750
vt 0.312500 0.564914
vt 0.312500 0.593750
vt 0.312500 0.574983
vt 0.312500 0.563802
vt 0.312500 0.612882
vt 0.312500 0.614583
vt 0.312500 0.624728
vt 0.312500 0.614921
vt 0.312500 0.624456
vt 0.312500 0.623617
vt 0.312500 0.625000
vt 0.312500 0.625000
vt 0.312500 0.572780
vt 0.312500 0.563439
vt 0.312500 0.572698
vt 0.312500 0.585590
vt 0.312500 0.572917
vt 0.312500 0.593859
vt 0.312500 0.617534
vt 0.312500 0.593765
vt 0.312500 0.585942
vt 0.312500 0.572917
vt 0.312500 0.566396
vt 0.312500 0.562500
vt 0.312500 0.624804
vt 0.312500 0.624054
vt 0.312500 0.625000
vt 0.312500 0.624532
vt 0.312500 0.624805
vt 0.312500 0.617211
vt 0.312500 0.624251
vt 0.312500 0.563802
vt 0.312500 0.614583
vt 0.312500 0.623793
vt 0.312500 0.619275
vt 0.312500 0.580555
vt 0.312500 0.563785
vt 0.312500 0.620594
vt 0.312500 0.591287
vt 0.312500 0.563398
vt 0.312500 0.593740
vt 0.312500 0.624397
vt 0.312500 0.614717
vt 0.312500 0.562639
vt 0.312500 0.623736
s 0
usemtl Material.002
f 46/1/1 39/2/1 33/3/1
f 6/4/2 30/5/2 76/6/2
f 76/6/3 29/7/3 4/8/3
f 4/8/4 37/7/4 8/4/4
f 36/9/5 4/8/5 8/4/5
f 5/10/6 33/3/6 1/11/6
f 8/4/7 37/7/7 27/5/7
f 37/7/8 1/11/8 27/5/8
f 32/12/9 2/13/9 70/14/9
f 54/15/10 44/16/10 39/2/10
f 39/2/11 44/16/11 45/17/11
f 35/18/12 41/19/12 72/20/12
f 39/2/13 45/17/13 7/16/13
f 75/21/14 10/22/14 58/23/14
f 51/24/15 58/23/15 38/25/15
f 25/26/16 57/5/16 49/27/16
f 24/28/17 56/9/17 13/29/17
f 54/15/18 15/16/18 60/16/18
f 64/30/19 59/31/19 51/24/19
f 17/32/20 66/33/20 16/34/20
f 17/32/21 14/16/21 66/33/21
f 63/32/22 60/16/22 15/16/22
f 59/31/23 16/34/23 12/35/23
f 64/30/24 51/24/24 48/36/24
f 14/16/25 15/16/25 54/15/25
f 64/30/26 18/16/26 59/31/26
f 18/16/27 62/16/27 59/31/27
f 59/31/28 62/16/28 16/34/28
f 62/16/29 17/32/29 16/34/29
f 17/32/30 15/16/30 14/16/30
f 19/16/31 63/32/31 15/16/31
f 61/32/32 64/30/32 60/16/32
f 31/9/33 52/29/33 43/9/33
f 18/16/34 20/16/34 62/16/34
f 20/16/35 17/32/35 62/16/35
f 65/16/36 19/16/36 17/32/36
f 63/32/37 21/17/37 61/32/37
f 65/16/38 20/16/38 21/17/38
f 10/22/39 75/21/39 55/37/39
f 11/38/40 74/39/40 54/15/40
f 54/15/41 74/39/41 14/16/41
f 74/39/42 23/40/42 66/33/42
f 22/41/43 68/42/43 8/4/43
f 69/43/44 22/41/44 27/5/44
f 27/5/45 22/41/45 8/4/45
f 71/44/46 68/42/46 22/41/46
f 71/44/47 28/45/47 68/42/47
f 72/20/48 71/44/48 67/46/48
f 71/44/49 2/13/49 67/46/49
f 73/47/50 71/44/50 69/43/50
f 71/44/51 73/47/51 2/13/51
f 28/45/52 71/44/52 72/20/52
f 23/40/53 74/39/53 25/16/53
f 24/28/54 75/21/54 25/26/54
f 75/21/55 23/40/55 25/16/55
f 31/9/56 6/4/56 76/6/56
f 5/10/57 30/5/57 46/1/57
f 5/10/58 46/1/58 33/3/58
f 33/3/59 39/2/59 7/16/59
f 76/6/60 30/5/60 29/7/60
f 36/9/61 31/9/61 76/6/61
f 4/8/62 29/7/62 37/7/62
f 37/7/63 29/7/63 5/10/63
f 37/7/64 5/10/64 1/11/64
f 67/46/65 9/48/65 38/25/65
f 36/9/66 76/6/66 4/8/66
f 35/18/67 67/46/67 38/25/67
f 70/14/68 33/3/68 7/16/68
f 1/11/69 33/3/69 69/43/69
f 36/9/70 3/29/70 34/29/70
f 77/49/71 72/20/71 41/19/71
f 68/42/72 36/9/72 8/4/72
f 7/16/73 32/12/73 70/14/73
f 34/29/74 41/19/74 52/29/74
f 3/29/75 77/49/75 34/29/75
f 42/50/76 44/16/76 48/36/76
f 9/48/77 48/36/77 51/24/77
f 54/15/78 50/11/78 11/38/78
f 46/1/79 40/5/79 50/11/79
f 46/1/80 50/11/80 39/2/80
f 6/4/81 40/5/81 30/5/81
f 32/12/82 45/17/82 42/50/82
f 9/48/83 32/12/83 42/50/83
f 12/35/84 75/21/84 58/23/84
f 40/5/85 53/4/85 47/5/85
f 50/11/86 47/5/86 11/38/86
f 10/22/87 38/25/87 58/23/87
f 9/48/88 51/24/88 38/25/88
f 43/9/89 13/29/89 56/9/89
f 43/9/90 53/4/90 6/4/90
f 55/37/91 35/18/91 10/22/91
f 52/29/92 55/37/92 13/29/92
f 74/39/93 57/5/93 25/26/93
f 14/16/94 74/39/94 66/33/94
f 66/33/95 23/40/95 12/35/95
f 49/27/96 24/28/96 25/26/96
f 47/5/97 49/27/97 57/5/97
f 59/31/98 12/35/98 58/23/98
f 51/24/99 59/31/99 58/23/99
f 48/36/100 60/16/100 64/30/100
f 47/5/101 57/5/101 11/38/101
f 56/9/102 49/27/102 53/4/102
f 54/15/103 60/16/103 44/16/103
f 63/32/104 61/32/104 60/16/104
f 12/35/105 16/34/105 66/33/105
f 13/29/106 75/21/106 24/28/106
f 20/16/107 65/16/107 17/32/107
f 17/32/108 19/16/108 15/16/108
f 64/30/109 61/32/109 18/16/109
f 65/16/110 21/17/110 19/16/110
f 18/16/111 21/17/111 20/16/111
f 61/32/112 21/17/112 18/16/112
f 63/32/113 19/16/113 21/17/113
f 68/42/114 28/45/114 3/29/114
f 70/14/115 73/47/115 69/43/115
f 2/13/116 73/47/116 70/14/116
f 1/11/117 69/43/117 27/5/117
f 69/43/118 71/44/118 22/41/118
f 31/9/119 34/29/119 52/29/119
f 31/9/120 43/9/120 6/4/120
f 5/10/121 29/7/121 30/5/121
f 36/9/122 34/29/122 31/9/122
f 67/46/123 2/13/123 9/48/123
f 35/18/124 72/20/124 67/46/124
f 70/14/125 69/43/125 33/3/125
f 36/9/126 68/42/126 3/29/126
f 77/49/127 28/45/127 72/20/127
f 34/29/128 77/49/128 41/19/128
f 3/29/129 28/45/129 77/49/129
f 42/50/130 45/17/130 44/16/130
f 9/48/131 42/50/131 48/36/131
f 54/15/132 39/2/132 50/11/132
f 46/1/133 30/5/133 40/5/133
f 32/12/134 7/16/134 45/17/134
f 9/48/135 2/13/135 32/12/135
f 12/35/136 23/40/136 75/21/136
f 40/5/137 6/4/137 53/4/137
f 50/11/138 40/5/138 47/5/138
f 10/22/139 35/18/139 38/25/139
f 43/9/140 52/29/140 13/29/140
f 43/9/141 56/9/141 53/4/141
f 55/37/142 41/19/142 35/18/142
f 52/29/143 41/19/143 55/37/143
f 74/39/144 11/38/144 57/5/144
f 49/27/145 56/9/145 24/28/145
f 47/5/146 53/4/146 49/27/146
f 48/36/147 44/16/147 60/16/147
f 13/29/148 55/37/148 75/21/148
