# Blender 4.2.2 LTS
# www.blender.org
mtllib face.mtl
o 頭
v 0.448239 0.239091 0.290234
v -0.053267 0.048411 0.330200
v 0.291113 0.967601 0.029924
v 0.081394 0.998426 -0.205428
v 0.247338 0.970053 -0.179531
v 0.140968 0.996925 0.084126
v 0.533954 0.561794 0.300240
v 0.548008 0.569616 0.115005
v 0.441110 0.773113 -0.352946
v 0.422867 0.753951 0.270484
v -0.207869 0.792267 -0.416803
v 0.245550 0.648363 0.392508
v 0.226478 0.795001 -0.407544
v 0.437757 0.802318 0.108564
v -0.050421 0.287142 -0.412629
v 0.033742 0.227565 0.459004
v 0.309712 0.240108 0.404956
v 0.425616 0.483096 -0.406460
v 0.552596 0.431107 0.302655
v 0.547587 0.472446 -0.352720
v 0.345383 0.870711 -0.349943
v 0.379963 0.052526 -0.367514
v 0.402840 0.073693 -0.335490
v 0.308178 0.085963 -0.399838
v 0.402143 0.106280 0.287412
v 0.341041 0.022846 -0.292463
v 0.039391 -0.031893 -0.368599
v 0.118732 -0.025106 -0.279061
v 0.123609 -0.025437 0.046638
v 0.302608 0.062706 -0.328796
v 0.130194 0.050981 -0.320432
v 0.126643 0.061373 -0.389469
v 0.171709 0.035244 0.281310
v 0.076614 -0.017820 -0.157303
v 0.096296 0.020730 0.196022
v 0.082446 -0.014864 -0.305116
v -0.028444 0.477090 -0.416024
v 0.556317 0.430544 -0.185124
v 0.366528 0.385592 -0.399057
v 0.374894 0.562434 -0.408092
v 0.005050 0.288284 -0.338667
v 0.368121 0.573336 -0.313914
v 0.377253 0.412918 -0.323178
v 0.389329 0.545932 -0.287642
v 0.253747 0.317126 -0.335847
v 0.184240 0.504906 -0.337498
v -0.246619 0.557015 -0.183739
v 0.261694 0.623709 -0.182378
v 0.252506 0.566411 -0.183286
v 0.243433 0.302723 -0.417284
v -0.541001 0.446748 -0.345250
v -0.444995 0.259540 0.293941
v -0.261387 0.978863 0.012903
v -0.405685 0.077435 -0.341631
v -0.224560 0.995232 -0.151886
v -0.455565 0.231842 0.059608
v -0.138267 0.993649 0.079496
v -0.536897 0.573145 -0.344632
v -0.376798 0.563506 -0.406217
v -0.447722 0.749521 -0.353098
v -0.205525 0.652532 0.395351
v -0.431985 0.777529 -0.022583
v -0.258327 0.228135 0.454342
v -0.431416 0.486090 -0.392236
v -0.346337 0.915185 0.047948
v -0.181600 0.914872 -0.377128
v 0.029259 0.782417 0.331686
v -0.349965 0.853976 0.274331
v -0.326929 0.894970 -0.350597
v -0.376082 0.054550 -0.373198
v -0.308178 0.085963 -0.399838
v -0.407206 0.097632 0.321669
v -0.312888 0.021222 -0.086053
v -0.339703 0.019174 -0.293831
v -0.115706 -0.029954 -0.164793
v -0.114201 -0.025078 -0.277134
v -0.302841 0.062900 -0.329790
v -0.130483 0.051298 -0.324503
v -0.126314 0.061313 -0.389404
v -0.080214 -0.016228 -0.312254
v -0.072997 -0.008216 -0.376817
v -0.541521 0.506107 0.274864
v -0.307722 0.331607 -0.411106
v -0.379408 0.409735 -0.327527
v -0.064729 0.475724 -0.350842
v -0.368349 0.571540 -0.270086
v -0.256715 0.319912 -0.334676
v -0.263309 0.627982 -0.182123
vn 0.3794 0.3518 0.8557
vn 0.6196 -0.2310 0.7502
vn 0.7128 0.7003 -0.0391
vn 0.0597 -0.9866 -0.1516
vn 0.7878 -0.6018 -0.1311
vn 0.3322 0.0809 0.9397
vn -0.0442 -0.0933 -0.9947
vn -0.0822 -0.9902 0.1126
vn -0.2520 -0.9673 -0.0293
vn -0.1663 -0.9861 0.0015
vn -0.6379 -0.7610 0.1186
vn 0.2955 -0.9501 -0.0996
vn 0.2106 -0.9776 -0.0041
vn -0.6142 0.7869 -0.0591
vn -0.9301 -0.3576 0.0842
vn -0.6576 -0.2013 0.7259
vn -0.8480 0.5299 -0.0045
vn -0.6973 -0.7102 0.0970
vn -0.5427 -0.5232 -0.6571
vn -0.0616 -0.9858 -0.1561
vn -0.7685 -0.6188 -0.1627
vn -0.4335 0.1452 -0.8894
vn -0.0057 -0.7457 0.6662
vn 0.3186 0.4993 -0.8057
vn 0.0517 0.5347 -0.8434
vn 0.9444 -0.3282 0.0182
vn 0.9935 0.1111 -0.0240
vn 0.3213 0.0633 0.9449
vn 0.9865 0.1422 0.0809
vn 0.5915 -0.3679 0.7175
vn 0.7600 0.6474 -0.0565
vn 0.6515 -0.7576 0.0404
vn 0.4173 -0.4818 -0.7705
vn 0.1111 -0.9470 -0.3013
vn 0.6720 -0.6893 -0.2709
vn 0.4088 0.2433 -0.8796
vn 0.9990 0.0434 0.0076
vn 0.0006 0.0157 -0.9999
vn -0.3017 0.4966 -0.8139
vn 0.2414 -0.8249 0.5112
vn -0.6421 -0.7278 -0.2408
vn -0.5279 0.8219 0.2138
vn 0.1658 -0.9332 0.3187
vn 0.3564 -0.9294 0.0962
vn -0.9455 -0.3256 0.0077
vn -0.9740 -0.2155 0.0694
vn -0.2803 0.1632 -0.9459
vn -0.3581 0.0162 -0.9335
vn -0.6538 -0.0231 0.7563
vn -0.7668 0.6380 -0.0697
vn -0.5651 -0.8247 0.0238
vn -0.1109 -0.9465 -0.3032
vn -0.7811 -0.6076 -0.1439
vn -0.1941 -0.9706 -0.1422
vn -0.3990 0.1748 0.9002
vn 0.8416 0.1287 -0.5246
vn 0.8156 -0.5784 -0.0165
vn 0.5616 0.7874 -0.2543
vn -0.0867 -0.7882 0.6093
vn -0.0003 0.0227 -0.9997
vn 0.8223 -0.5688 -0.0137
vn -0.1397 -0.9786 0.1511
vn -0.1809 -0.9676 0.1760
vn 0.2145 0.8925 -0.3968
vn 0.6001 0.7915 -0.1161
vn -0.0043 -0.9977 0.0672
vn 0.0324 0.8855 -0.4635
vn 0.2591 0.1676 -0.9512
vn -0.4988 -0.1374 -0.8557
vn 0.2826 -0.0791 -0.9560
vn 0.1824 0.9829 -0.0266
vn -0.0002 -0.1022 -0.9948
vn 0.0870 0.5130 -0.8540
vn 0.9403 0.3330 -0.0700
vn 0.8566 0.5086 0.0865
vn 0.1652 -0.6028 0.7806
vn 0.3896 0.6731 0.6287
vn -0.2786 -0.9061 -0.3185
vn 0.2635 0.2868 -0.9210
vn 0.6502 -0.7589 0.0371
vn 0.0877 -0.6236 -0.7768
vn 0.0816 0.1748 0.9812
vn 0.2061 -0.9534 -0.2204
vn -0.7966 -0.6044 0.0127
vn -0.5877 0.7841 -0.1993
vn -0.9092 0.1825 -0.3742
vn -0.1119 0.9809 -0.1593
vn 0.3308 -0.9344 0.1320
vn -0.5927 0.1077 -0.7982
vn 0.0632 -0.8073 0.5867
vn -0.0508 0.5211 -0.8520
vn 0.3815 -0.0719 -0.9216
vn -0.0119 0.9999 0.0076
vn -0.0178 -0.9830 0.1830
vn -0.1529 0.9862 0.0638
vn -0.4559 0.5096 0.7297
vn -0.0141 -0.5791 0.8151
vn -0.8699 0.4792 0.1169
vn -0.2139 0.3419 -0.9151
vn 0.2919 -0.9016 -0.3191
vn -0.6418 -0.7654 -0.0470
vn -0.0596 -0.6036 -0.7951
vn -0.2420 -0.9579 -0.1548
vn 0.7827 0.6149 0.0965
vn 0.1178 0.9876 -0.1036
vn 0.5807 0.2368 -0.7789
vn -0.2360 -0.9709 0.0400
vn 0.9296 -0.3432 -0.1342
vn -0.0025 0.0008 -1.0000
vn -0.3490 0.1319 -0.9278
vn 0.3727 -0.9279 -0.0039
vn -0.0402 -0.9915 0.1240
vn -0.3525 -0.7681 -0.5346
vn -0.1445 0.5955 -0.7903
vn 0.0256 0.7274 0.6858
vn -0.6255 0.7771 -0.0699
vn 0.3625 0.1277 -0.9232
vn -0.3485 -0.1368 -0.9273
vn -0.2047 -0.0445 -0.9778
vn -0.4925 0.4167 -0.7640
vn 0.3649 -0.2883 -0.8853
vn 0.1731 0.9844 -0.0305
vn -0.0138 -0.0458 -0.9989
vn -0.0099 -0.1097 -0.9939
vn 0.0211 -0.2371 -0.9713
vn 0.0412 -0.1159 -0.9924
vn -0.0002 -0.1783 -0.9840
vn 0.0184 0.3043 -0.9524
vn 0.9037 0.4276 -0.0205
vn 0.8818 0.4235 0.2076
vn 0.1824 -0.5747 0.7978
vn 0.1318 -0.6201 0.7734
vn 0.2278 0.6826 0.6943
vn -0.3736 0.8976 0.2338
vn 0.3678 0.6450 0.6698
vn -0.3529 -0.7930 -0.4966
vn -0.0102 -0.4765 -0.8791
vn -0.2790 -0.0146 0.9602
vn 0.2030 0.1100 0.9730
vn -0.0016 0.9759 0.2184
vn 0.1141 -0.9926 0.0427
vn -0.8425 -0.5381 0.0273
vn -0.5488 0.8323 -0.0777
vn -0.8556 0.5136 -0.0640
vn -0.0526 0.9983 0.0240
vn -0.5605 0.2609 -0.7860
vn -0.0085 0.4935 -0.8697
vn 0.1660 -0.0298 -0.9857
vn -0.0087 0.9999 0.0101
vn 0.0980 0.8847 0.4558
vn -0.0197 0.7600 0.6496
vn -0.1080 -0.6455 0.7561
vn 0.1111 -0.0085 0.9938
vn -0.9389 -0.3439 0.0156
vn -0.4430 0.8813 0.1643
vn -0.9469 -0.3202 0.0299
vn -0.9553 0.2949 0.0205
vn -0.8689 0.4811 0.1162
vn -0.1351 0.0759 0.9879
vn -0.9390 0.3422 -0.0335
vn -0.2906 0.2572 -0.9216
vn 0.3940 -0.7587 -0.5188
vn -0.0095 -0.5285 -0.8489
vn -0.2822 -0.9565 0.0740
vn 0.1704 0.9847 0.0370
vn 0.5838 0.1554 -0.7969
vn -0.1891 -0.9809 -0.0451
vn 0.8784 -0.4779 0.0073
vn 0.8577 -0.3284 -0.3956
vn 0.9112 -0.4097 0.0422
vn -0.0023 0.1035 -0.9946
vn 0.0217 -0.0622 -0.9978
vt 0.545913 0.049238
vt 0.550326 0.124119
vt 0.472823 0.058467
vt 0.404449 0.140665
vt 0.429606 0.184893
vt 0.378400 0.177410
vt 0.378400 0.432730
vt 0.531132 0.453860
vt 0.379577 0.466985
vt 0.114726 0.690420
vt 0.115785 0.709660
vt 0.057843 0.692098
vt 0.117236 0.909922
vt 0.117577 0.930883
vt 0.095523 0.902266
vt 0.434580 0.078303
vt 0.140196 0.288889
vt 0.070796 0.315932
vt 0.057674 0.256951
vt 0.126196 0.539720
vt 0.175129 0.495066
vt 0.133101 0.650739
vt 0.131154 0.694633
vt 0.119319 0.688396
vt 0.117708 0.590909
vt 0.024589 0.502014
vt 0.101212 0.512528
vt 0.045620 0.686847
vt 0.377919 0.832950
vt 0.404987 0.843104
vt 0.414343 0.896801
vt 0.702247 0.615688
vt 0.706814 0.534910
vt 0.779727 0.622523
vt 0.648368 0.626523
vt 0.801215 0.441941
vt 0.776001 0.396827
vt 0.910393 0.447946
vt 0.201796 0.764964
vt 0.216811 0.784727
vt 0.201796 0.851683
vt 0.271166 0.851229
vt 0.265990 0.840415
vt 0.289834 0.830825
vt 0.028482 0.798457
vt 0.042492 0.857909
vt 0.024589 0.854942
vt 0.286258 0.900407
vt 0.286253 0.923428
vt 0.265990 0.930239
vt 0.181636 0.062166
vt 0.165553 0.026758
vt 0.208596 0.078098
vt 0.738806 0.756147
vt 0.738806 0.928953
vt 0.667656 0.863972
vt 0.756946 0.024589
vt 0.805508 0.066153
vt 0.727707 0.065305
vt 0.717999 0.151596
vt 0.594650 0.637758
vt 0.593827 0.680362
vt 0.389167 0.695746
vt 0.438817 0.580876
vt 0.383285 0.568168
vt 0.536511 0.532756
vt 0.599189 0.576955
vt 0.597261 0.533620
vt 0.501850 0.396827
vt 0.024729 0.693051
vt 0.860752 0.803877
vt 0.842875 0.783758
vt 0.866553 0.793231
vt 0.055760 0.710218
vt 0.095523 0.931404
vt 0.204399 0.343509
vt 0.229039 0.324690
vt 0.204116 0.383170
vt 0.828833 0.233256
vt 0.809939 0.230401
vt 0.760012 0.273571
vt 0.728159 0.233338
vt 0.675966 0.781832
vt 0.692642 0.720844
vt 0.148114 0.810156
vt 0.137260 0.803919
vt 0.152617 0.764964
vt 0.380699 0.761498
vt 0.694437 0.669035
vt 0.912940 0.669035
vt 0.267523 0.049044
vt 0.288376 0.127282
vt 0.207146 0.024589
vt 0.907230 0.399377
vt 0.290847 0.690729
vt 0.260899 0.622294
vt 0.291111 0.489284
vt 0.046344 0.798421
vt 0.265990 0.907873
vt 0.184715 0.696224
vt 0.182255 0.714497
vt 0.145513 0.715785
vt 0.639551 0.241215
vt 0.668821 0.347649
vt 0.536538 0.338891
vt 0.869064 0.906154
vt 0.846783 0.880092
vt 0.887775 0.853055
vt 0.842875 0.855953
vt 0.906735 0.065550
vt 0.882336 0.048459
vt 0.912979 0.024589
vt 0.704593 0.963548
vt 0.828833 0.060445
vt 0.793697 0.883818
vt 0.787984 0.920338
vt 0.787984 0.718214
vt 0.196542 0.653775
vt 0.599189 0.975411
vt 0.514095 0.918904
vt 0.569235 0.914190
vt 0.587052 0.846596
vt 0.195998 0.686763
vt 0.377919 0.964182
vt 0.299848 0.339907
vt 0.301259 0.269553
vt 0.053749 0.113779
vt 0.048079 0.081344
vt 0.170742 0.326746
vt 0.061711 0.340020
vt 0.538406 0.825368
vt 0.126941 0.192888
vt 0.050658 0.173987
vt 0.329222 0.132024
vt 0.329222 0.305767
vt 0.584459 0.468199
vt 0.144550 0.432348
vt 0.558884 0.024589
vt 0.668821 0.063730
vt 0.032489 0.705438
vt 0.851073 0.727369
vt 0.866553 0.718214
vt 0.629212 0.150996
vt 0.648368 0.851674
vt 0.662952 0.718214
vt 0.152617 0.840992
vt 0.887089 0.270170
vt 0.905193 0.233655
vt 0.912979 0.273743
vt 0.127429 0.846719
vt 0.097864 0.826540
vt 0.878011 0.230118
vt 0.903607 0.151940
vt 0.803779 0.276750
vt 0.446497 0.822674
vt 0.506712 0.751598
vt 0.240690 0.432348
vt 0.702122 0.419263
vt 0.318591 0.084596
vt 0.044246 0.775478
vt 0.032351 0.764964
vt 0.024589 0.785486
vt 0.282622 0.774488
vt 0.265990 0.764964
vt 0.662713 0.965686
vt 0.842875 0.933742
vt 0.879501 0.133469
vt 0.810146 0.027090
vt 0.269754 0.684687
vt 0.425195 0.974287
vt 0.134414 0.107246
vt 0.041482 0.092063
vt 0.024589 0.230674
vt 0.029276 0.193254
vt 0.053569 0.448065
vt 0.632753 0.026151
vt 0.479203 0.263142
vt 0.095523 0.853087
vt 0.910015 0.506616
vt 0.911497 0.548239
vt 0.663198 0.485924
vt 0.681114 0.441140
vt 0.378400 0.702420
vt 0.189899 0.194866
s 0
usemtl マテリアル.001
f 10/1/1 12/2/1 7/3/1
f 1/4/2 17/5/2 25/6/2
f 21/7/3 14/8/3 9/9/3
f 31/10/4 32/11/4 30/12/4
f 31/13/5 36/14/5 32/15/5
f 19/16/6 12/2/6 17/5/6
f 50/17/7 24/18/7 32/19/7
f 35/20/8 2/21/8 34/22/8
f 36/23/9 28/24/9 34/22/9
f 34/22/10 28/24/10 29/25/10
f 29/25/11 35/20/11 34/22/11
f 25/26/12 33/27/12 35/20/12
f 26/28/13 29/25/13 28/24/13
f 65/29/14 53/30/14 55/31/14
f 52/32/15 82/33/15 56/34/15
f 52/32/16 63/35/16 82/33/16
f 62/36/17 65/37/17 60/38/17
f 54/39/18 74/40/18 73/41/18
f 80/42/19 76/43/19 78/44/19
f 77/45/20 79/46/20 78/47/20
f 79/48/21 81/49/21 80/50/21
f 64/51/22 51/52/22 59/53/22
f 48/54/23 88/55/23 85/56/23
f 84/57/24 47/58/24 87/59/24
f 47/58/25 41/60/25 87/59/25
f 1/61/26 25/62/26 23/63/26
f 38/64/27 20/65/27 8/66/27
f 19/16/28 7/3/28 12/2/28
f 19/67/29 8/66/29 7/68/29
f 1/4/30 19/16/30 17/5/30
f 21/7/31 3/69/31 14/8/31
f 23/70/32 25/26/32 26/28/32
f 36/71/33 31/72/33 28/73/33
f 24/74/34 30/12/34 32/11/34
f 32/15/35 36/14/35 27/75/35
f 18/76/36 40/77/36 20/78/36
f 38/64/37 8/66/37 19/67/37
f 48/79/38 49/80/38 47/58/38
f 43/81/39 45/82/39 49/80/39
f 46/83/40 42/84/40 48/54/40
f 42/85/41 44/86/41 48/87/41
f 53/30/42 65/29/42 68/88/42
f 35/20/43 29/25/43 25/26/43
f 26/28/44 25/26/44 29/25/44
f 72/89/45 56/34/45 54/90/45
f 52/32/46 56/34/46 72/89/46
f 59/53/47 60/91/47 11/92/47
f 59/53/48 51/52/48 58/93/48
f 52/32/49 72/89/49 63/35/49
f 60/38/50 65/37/50 69/94/50
f 54/95/51 73/96/51 72/97/51
f 79/46/52 77/45/52 71/98/52
f 78/99/53 79/48/53 80/50/53
f 80/100/54 81/101/54 27/102/54
f 61/103/55 82/104/55 63/105/55
f 84/106/56 64/107/56 86/108/56
f 64/107/57 59/109/57 86/108/57
f 87/110/58 83/111/58 84/112/58
f 85/56/59 88/55/59 86/113/59
f 48/79/60 47/58/60 88/114/60
f 75/115/61 76/116/61 2/117/61
f 2/21/62 72/97/62 73/96/62
f 73/96/63 75/118/63 2/21/63
f 21/119/64 4/120/64 5/121/64
f 3/122/65 21/119/65 5/121/65
f 34/22/66 76/123/66 27/102/66
f 55/31/67 21/119/67 69/124/67
f 9/125/68 40/77/68 13/126/68
f 64/51/69 71/127/69 54/128/69
f 39/129/70 20/78/70 22/130/70
f 5/121/71 6/131/71 3/122/71
f 15/132/72 32/19/72 79/133/72
f 13/126/73 66/134/73 21/135/73
f 9/9/74 8/66/74 20/65/74
f 8/66/75 10/136/75 7/68/75
f 16/137/76 33/27/76 25/26/76
f 12/2/77 14/138/77 6/139/77
f 22/140/78 30/12/78 24/74/78
f 21/135/79 9/125/79 13/126/79
f 26/28/80 22/140/80 23/70/80
f 28/73/81 30/141/81 26/142/81
f 67/143/82 63/105/82 17/5/82
f 46/83/83 37/144/83 40/145/83
f 40/146/84 44/86/84 42/85/84
f 39/147/85 45/148/85 43/149/85
f 18/150/86 43/151/86 44/86/86
f 50/152/87 41/153/87 45/148/87
f 42/84/88 46/83/88 40/145/88
f 44/154/89 49/80/89 48/79/89
f 48/54/90 85/56/90 46/83/90
f 41/60/91 49/80/91 45/82/91
f 24/18/92 39/129/92 22/130/92
f 4/120/93 57/155/93 6/131/93
f 2/21/94 35/20/94 33/27/94
f 53/30/95 57/155/95 55/31/95
f 67/156/96 57/155/96 53/30/96
f 63/157/97 2/21/97 16/137/97
f 82/33/98 68/158/98 62/36/98
f 11/92/99 69/159/99 66/134/99
f 77/45/100 70/160/100 71/98/100
f 54/161/101 70/160/101 74/162/101
f 77/163/102 76/43/102 74/164/102
f 85/56/103 59/165/103 37/144/103
f 84/106/104 83/166/104 64/107/104
f 15/167/105 87/110/105 41/153/105
f 86/168/106 47/58/106 84/57/106
f 74/169/107 75/118/107 73/96/107
f 38/64/108 23/63/108 20/65/108
f 59/53/109 13/126/109 40/77/109
f 59/53/110 58/93/110 60/91/110
f 27/102/111 36/23/111 34/22/111
f 34/22/112 2/21/112 76/123/112
f 76/123/113 80/100/113 27/102/113
f 55/31/114 4/120/114 21/119/114
f 21/119/115 66/170/115 69/124/115
f 69/124/116 65/29/116 55/31/116
f 9/125/117 20/78/117 40/77/117
f 54/128/118 51/52/118 64/51/118
f 64/51/119 83/171/119 71/127/119
f 71/127/120 70/172/120 54/128/120
f 39/129/121 18/76/121 20/78/121
f 5/121/122 4/120/122 6/131/122
f 71/127/123 83/171/123 15/132/123
f 15/132/124 50/17/124 32/19/124
f 32/19/125 27/173/125 81/174/125
f 79/133/126 71/127/126 15/132/126
f 32/19/127 81/174/127 79/133/127
f 13/126/128 11/92/128 66/134/128
f 9/9/129 14/8/129 8/66/129
f 8/66/130 14/8/130 10/136/130
f 25/26/131 17/175/131 16/137/131
f 16/137/132 2/21/132 33/27/132
f 6/139/133 67/143/133 12/2/133
f 12/2/134 10/1/134 14/138/134
f 14/138/135 3/176/135 6/139/135
f 22/140/136 26/28/136 30/12/136
f 28/73/137 31/72/137 30/141/137
f 17/5/138 12/2/138 67/143/138
f 67/143/139 61/103/139 63/105/139
f 63/105/140 16/177/140 17/5/140
f 46/83/141 85/56/141 37/144/141
f 40/146/142 18/150/142 44/86/142
f 39/147/143 50/152/143 45/148/143
f 18/150/144 39/178/144 43/151/144
f 50/152/145 15/167/145 41/153/145
f 44/154/146 43/81/146 49/80/146
f 41/60/147 47/58/147 49/80/147
f 24/18/148 50/17/148 39/129/148
f 4/120/149 55/31/149 57/155/149
f 53/30/150 68/88/150 67/156/150
f 67/156/151 6/131/151 57/155/151
f 63/157/152 72/97/152 2/21/152
f 60/38/153 58/179/153 51/180/153
f 51/180/154 54/90/154 56/34/154
f 82/33/155 61/181/155 67/182/155
f 51/180/156 56/34/156 82/33/156
f 62/36/157 60/38/157 51/180/157
f 68/158/158 65/37/158 62/36/158
f 82/33/159 67/182/159 68/158/159
f 62/36/160 51/180/160 82/33/160
f 11/92/161 60/91/161 69/159/161
f 77/45/162 74/162/162 70/160/162
f 77/163/163 78/44/163 76/43/163
f 85/56/164 86/113/164 59/165/164
f 15/167/165 83/111/165 87/110/165
f 86/168/166 88/114/166 47/58/166
f 74/169/167 76/123/167 75/118/167
f 38/64/168 19/67/168 1/61/168
f 23/63/169 22/183/169 20/65/169
f 38/64/170 1/61/170 23/63/170
f 40/77/171 37/184/171 59/53/171
f 59/53/172 11/92/172 13/126/172
