# Blender 4.2.2 LTS
# www.blender.org
mtllib LeftForearm.mtl
o 左前腕
v -1.187058 -0.334250 0.408436
v -0.848748 -0.899766 0.793332
v -1.056380 -0.208050 0.828877
v -1.449262 -0.263666 0.815502
v -1.428655 -0.957123 0.696994
v -1.515636 -0.415076 0.611016
v -1.450400 -0.328311 0.541942
v -1.024372 -1.026929 0.909817
v -1.002687 -0.801458 1.038340
v -1.368806 -1.002082 0.806426
v -1.387792 -0.217792 0.652928
v -0.861588 -0.882419 0.700989
v -0.930275 -0.627202 0.620059
v -1.407304 -0.670598 0.518065
v -1.386798 -0.908902 0.511823
v -1.347157 -0.683064 1.019702
v -0.845809 -0.859002 0.842873
v -0.987121 -0.274731 0.821950
v -1.302337 -0.399732 1.045570
v -1.281916 -0.295598 0.997897
v -1.425154 -1.039800 0.638179
v -1.043886 -0.941534 1.010348
v -0.898056 -0.722179 0.872113
v -1.080466 -0.274383 0.942296
v -1.212592 -0.749362 1.079641
v -1.207892 -0.913326 1.031815
v -1.483492 -0.361751 0.846237
v -1.515063 -0.428351 0.732569
v -1.233095 -1.093605 0.556305
v -1.250132 -0.989042 0.482295
v -1.444066 -0.440308 0.513407
v -1.109715 -0.738008 0.435455
v -0.915799 -0.967641 0.682226
v -1.092101 -0.156556 0.629514
v -1.023650 -0.236181 0.574248
v -1.149377 -0.344501 0.419410
v -1.090566 -1.111166 0.723960
v -1.300240 0.123145 0.660222
v -1.283435 -0.384958 0.393818
v -0.953189 -0.000597 0.531507
v -0.896096 -0.060412 0.971765
v -1.250082 -0.419769 1.034315
v -1.097548 -0.055071 1.049749
v -1.134266 0.037699 0.960525
v -1.199709 -0.535262 0.614104
v -1.020412 -0.461255 0.569441
v -1.194320 -0.497012 0.982898
v -1.020411 0.054209 0.884988
v -1.346553 -0.329122 0.398436
v -1.300231 -0.139405 0.433168
v -1.289233 -0.154319 0.957749
v -1.386850 -0.294011 0.967111
v -0.913961 -0.408841 0.932123
v -1.230172 -0.384873 0.388876
v -0.998818 -0.031779 0.463599
v -0.798960 -0.246242 0.846036
v -0.802418 -0.157429 0.805584
v -1.327563 -0.440079 1.037139
v -1.084918 -0.535595 0.631837
v -1.144924 -0.320935 0.430180
v -0.883373 -0.099814 0.575973
v -0.921666 -0.467928 0.797278
v -1.020856 -0.542961 0.810716
v -0.900584 -0.138200 1.025316
v -1.007265 -0.124134 1.060394
v -1.454754 -0.415552 0.826075
v -1.470303 -0.316377 0.824864
v -1.199479 -0.015369 0.966577
v -1.445709 -0.128864 0.631984
v -1.380619 -0.375913 0.468437
v -1.082470 0.127799 0.548393
v -1.170611 0.112979 0.479377
v -1.303879 0.114561 0.620877
v -1.361754 -0.498521 0.684184
vn 0.7240 -0.0238 -0.6894
vn 0.9662 0.2147 -0.1429
vn -0.6775 -0.3765 0.6319
vn -0.7338 0.0543 0.6772
vn 0.2102 0.3726 0.9039
vn -0.4140 -0.0176 0.9101
vn -0.4958 -0.2562 0.8298
vn -0.4746 -0.5587 -0.6801
vn -0.1948 -0.8572 0.4767
vn -0.8376 0.5324 -0.1223
vn 0.6305 0.6042 0.4873
vn -0.7878 0.1099 -0.6060
vn -0.7975 0.5879 -0.1356
vn 0.3697 0.5932 -0.7152
vn 0.8452 -0.4915 -0.2099
vn 0.9893 0.0780 -0.1229
vn -0.4396 0.1983 -0.8760
vn -0.3557 -0.0709 -0.9319
vn -0.0947 0.9304 0.3540
vn -0.2830 0.7547 -0.5919
vn 0.7924 0.1779 0.5836
vn 0.0777 -0.2771 0.9577
vn -0.6293 0.4238 0.6515
vn -0.9350 0.3520 0.0428
vn 0.6465 -0.7547 0.1118
vn -0.4533 -0.5467 -0.7040
vn 0.2768 -0.0113 -0.9609
vn 0.4823 -0.7286 -0.4863
vn 0.9346 0.3271 0.1396
vn -0.2201 -0.8566 0.4666
vn -0.3155 -0.9335 0.1704
vn 0.6910 -0.4070 0.5974
vn 0.7710 0.2205 0.5974
vn 0.2383 0.2080 0.9487
vn -0.8764 -0.4725 0.0933
vn 0.7379 0.0980 -0.6677
vn -0.8841 -0.2952 0.3623
vn 0.2646 0.6930 -0.6706
vn 0.7551 0.6556 -0.0093
vn 0.4863 -0.4154 -0.7687
vn -0.7644 0.2919 -0.5748
vn 0.0049 0.1789 -0.9839
vn 0.3397 -0.7655 0.5465
vn 0.7757 -0.2394 0.5840
vn 0.9250 -0.1271 -0.3580
vn 0.8450 -0.5059 0.1734
vn 0.6019 -0.7435 0.2914
vn -0.8468 -0.1265 0.5167
vn -0.1639 -0.9817 0.0968
vn 0.2667 0.7208 0.6397
vn 0.7469 0.2493 -0.6164
vn -0.3844 0.5564 0.7367
vn 0.2830 0.7549 0.5916
vn -0.1926 0.9623 -0.1921
vn -0.5381 -0.5560 -0.6335
vn -0.0923 -0.0221 -0.9955
vn -0.5232 0.6986 0.4880
vn -0.7552 0.4652 0.4618
vn 0.7545 0.6550 -0.0410
vn 0.0309 0.9657 0.2577
vn 0.5729 -0.2623 -0.7765
vn 0.5659 -0.7902 -0.2352
vn 0.8995 0.2114 0.3825
vn 0.3172 0.5354 0.7828
vn -0.3734 -0.8202 -0.4334
vn -0.8571 -0.1062 0.5041
vn -0.8642 0.5022 -0.0296
vn -0.8185 -0.5273 -0.2281
vn 0.3544 0.1260 -0.9266
vn -0.1711 -0.9782 0.1173
vn -0.4179 -0.8766 0.2387
vn 0.1734 -0.7816 -0.5992
vn 0.6075 -0.2187 -0.7636
vn 0.8654 -0.3212 -0.3845
vn -0.2582 -0.4659 0.8463
vn -0.6490 0.4461 -0.6162
vn 0.1544 -0.4679 0.8702
vn -0.0787 0.9906 -0.1121
vn 0.4342 0.5895 -0.6811
vn -0.9684 -0.1055 -0.2260
vn -0.3504 -0.0748 -0.9336
vn -0.1567 -0.0958 -0.9830
vn -0.2068 0.0078 -0.9784
vn -0.6112 0.7329 0.2988
vn -0.1832 0.9621 0.2022
vn -0.0444 0.9763 0.2117
vn -0.2106 0.8041 -0.5559
vn 0.1322 -0.2315 0.9638
vn -0.6294 0.4221 0.6524
vn -0.9368 0.3451 0.0580
vn 0.6248 -0.7748 0.0962
vn 0.9662 0.2139 -0.1438
vn 0.9766 0.1814 -0.1158
vn -0.0478 -0.7658 0.6413
vn -0.1538 -0.9519 0.2649
vn 0.4341 -0.7081 0.5569
vn 0.8314 -0.3334 0.4446
vn 0.7738 0.2223 0.5931
vn 0.3322 0.1756 0.9267
vn -0.9317 -0.0708 -0.3562
vn -0.8916 -0.2083 0.4021
vn -0.9960 0.0198 -0.0871
vn -0.8154 -0.1415 -0.5613
vn -0.9116 -0.1900 0.3645
vn -0.9248 -0.3786 -0.0370
vn -0.9814 0.1489 0.1214
vn 0.7037 0.0420 -0.7092
vn 0.6954 0.7161 0.0603
vn 0.6382 -0.2453 -0.7298
vn 0.4785 -0.4540 -0.7516
vn -0.7595 0.4615 0.4585
vn -0.8341 0.4449 0.3262
vn -0.7546 0.5512 0.3560
vn 0.6814 0.6392 0.3564
vn 0.6613 0.7489 0.0418
vn 0.6725 0.7382 -0.0519
vn 0.0811 0.9767 0.1986
vn 0.5960 -0.7525 -0.2803
vn 0.8990 0.2100 0.3842
vn 0.3277 0.5228 0.7869
vn -0.3927 -0.8223 -0.4118
vn 0.0033 0.1785 -0.9839
vn 0.0039 0.1129 -0.9936
vn 0.0037 -0.9991 -0.0425
vn -0.3541 -0.9292 0.1054
vn -0.0317 -0.9332 -0.3579
vn 0.1082 -0.6925 -0.7132
vn 0.6117 -0.2182 -0.7605
vn 0.8200 -0.3552 -0.4489
vn -0.3343 0.2936 0.8955
vn 0.2800 -0.3836 0.8800
vn -0.0363 0.2720 0.9616
vn -0.5330 0.2939 0.7935
vn 0.2562 -0.3260 0.9100
vn -0.3059 -0.2586 0.9163
vn 0.2681 0.3033 0.9144
vn -0.7295 0.3997 -0.5550
vn 0.5119 0.5967 -0.6180
vn -0.9081 0.0369 -0.4172
vn -0.9640 -0.1538 -0.2169
vt 0.296847 0.773924
vt 0.268400 0.696877
vt 0.371583 0.745501
vt 0.209367 0.702899
vt 0.783574 0.877060
vt 0.881943 0.787701
vt 0.857391 0.891087
vt 0.688460 0.799777
vt 0.702644 0.893338
vt 0.549211 0.221696
vt 0.532120 0.248771
vt 0.532120 0.126726
vt 0.138573 0.380661
vt 0.202781 0.442578
vt 0.158888 0.472512
vt 0.183695 0.519986
vt 0.183714 0.325114
vt 0.113517 0.293033
vt 0.178150 0.299090
vt 0.263766 0.550686
vt 0.168878 0.643050
vt 0.735464 0.201780
vt 0.720021 0.249838
vt 0.644061 0.250404
vt 0.556253 0.064671
vt 0.569496 0.088332
vt 0.026087 0.161064
vt 0.055920 0.128884
vt 0.066562 0.162154
vt 0.690558 0.188765
vt 0.180274 0.099296
vt 0.230073 0.042140
vt 0.195798 0.096794
vt 0.426293 0.815216
vt 0.442956 0.781325
vt 0.457355 0.834960
vt 0.230517 0.691123
vt 0.092811 0.225106
vt 0.646773 0.058363
vt 0.732568 0.068427
vt 0.194095 0.744210
vt 0.123990 0.722182
vt 0.121852 0.561198
vt 0.635591 0.279168
vt 0.709759 0.751422
vt 0.662651 0.791104
vt 0.709665 0.703080
vt 0.547438 0.781325
vt 0.550715 0.860708
vt 0.092051 0.332595
vt 0.230073 0.207246
vt 0.562108 0.947654
vt 0.308159 0.891413
vt 0.128006 0.602673
vt 0.635348 0.888642
vt 0.082361 0.531443
vt 0.036423 0.627052
vt 0.154490 0.879743
vt 0.206466 0.878294
vt 0.028516 0.411788
vt 0.792517 0.672577
vt 0.371583 0.862543
vt 0.869189 0.739709
vt 0.895264 0.715869
vt 0.192148 0.026009
vt 0.649728 0.026492
vt 0.532954 0.974201
vt 0.428490 0.955016
vt 0.879263 0.510517
vt 0.903204 0.570000
vt 0.813426 0.557623
vt 0.950198 0.545409
vt 0.807464 0.097875
vt 0.877709 0.212397
vt 0.790995 0.169080
vt 0.870595 0.031630
vt 0.790995 0.026931
vt 0.358936 0.084473
vt 0.345173 0.057110
vt 0.450520 0.109742
vt 0.399162 0.532053
vt 0.475681 0.492733
vt 0.487269 0.541698
vt 0.539875 0.535894
vt 0.758607 0.429594
vt 0.706017 0.479306
vt 0.730464 0.420308
vt 0.601298 0.479684
vt 0.660604 0.603670
vt 0.432896 0.338005
vt 0.473887 0.350576
vt 0.431185 0.438422
vt 0.026165 0.028020
vt 0.046207 0.048849
vt 0.026165 0.077012
vt 0.443664 0.306464
vt 0.394627 0.388263
vt 0.316417 0.265124
vt 0.237567 0.319606
vt 0.301715 0.262557
vt 0.933341 0.562733
vt 0.894586 0.592992
vt 0.457168 0.259396
vt 0.428800 0.169111
vt 0.258444 0.360273
vt 0.276394 0.436865
vt 0.538898 0.704883
vt 0.519867 0.635481
vt 0.583027 0.720546
vt 0.559876 0.609059
vt 0.284745 0.109742
vt 0.265010 0.085373
vt 0.478437 0.387062
vt 0.640819 0.696929
vt 0.603742 0.621194
vt 0.738658 0.521756
vt 0.335003 0.187261
vt 0.800701 0.300057
vt 0.804775 0.391392
vt 0.868348 0.409375
vt 0.960724 0.503195
vt 0.683481 0.558125
vt 0.603670 0.721024
vt 0.428793 0.704705
vt 0.399162 0.651068
vt 0.963892 0.173936
vt 0.908975 0.064403
vt 0.813426 0.453927
vt 0.916598 0.213231
vt 0.934825 0.244513
vt 0.886126 0.378207
vt 0.949356 0.387848
vt 0.706017 0.336621
vt 0.629498 0.958886
vt 0.028516 0.609279
vt 0.863109 0.669722
vt 0.723756 0.669722
vt 0.478437 0.209046
vt 0.254650 0.410566
vt 0.367581 0.472661
vt 0.459233 0.433077
vt 0.642964 0.468394
vt 0.966500 0.237319
vt 0.945156 0.081780
vt 0.966489 0.112660
vt 0.951146 0.366551
vt 0.798483 0.273572
s 0
usemtl マテリアル.008
f 13/1/1 12/2/1 32/3/1
f 13/1/2 17/4/2 12/2/2
f 16/5/3 10/6/3 26/7/3
f 27/8/4 16/5/4 19/9/4
f 20/10/5 19/11/5 24/12/5
f 19/13/6 16/14/6 25/15/6
f 16/14/7 26/16/7 25/15/7
f 29/17/8 15/18/8 30/19/8
f 10/20/9 37/21/9 26/16/9
f 7/22/10 6/23/10 4/24/10
f 18/25/11 3/26/11 24/12/11
f 6/27/12 7/28/12 31/29/12
f 4/24/13 11/30/13 7/22/13
f 1/31/14 35/32/14 36/33/14
f 12/34/15 2/35/15 33/36/15
f 2/37/16 12/2/16 17/4/16
f 7/28/17 1/31/17 31/29/17
f 14/38/18 1/31/18 30/19/18
f 34/39/19 4/24/19 24/12/19
f 11/30/20 1/40/20 7/22/20
f 23/41/21 9/42/21 17/4/21
f 22/43/22 25/15/22 26/16/22
f 27/44/23 20/10/23 4/24/23
f 28/45/24 4/46/24 6/47/24
f 33/36/25 8/48/25 37/49/25
f 29/17/26 21/50/26 15/18/26
f 36/33/27 32/51/27 1/31/27
f 33/36/28 37/49/28 29/52/28
f 35/53/29 23/41/29 17/4/29
f 8/54/30 26/16/30 37/21/30
f 10/55/31 29/52/31 37/49/31
f 9/56/32 8/54/32 2/57/32
f 24/58/33 23/41/33 18/59/33
f 24/60/34 25/15/34 9/56/34
f 14/61/35 16/5/35 28/45/35
f 13/1/36 36/62/36 35/53/36
f 10/6/37 5/63/37 21/64/37
f 1/31/38 34/65/38 35/32/38
f 34/39/39 18/25/39 35/66/39
f 33/36/40 30/67/40 32/68/40
f 50/69/41 49/70/41 69/71/41
f 50/69/42 54/72/42 49/70/42
f 53/73/43 47/74/43 63/75/43
f 64/76/44 53/73/44 56/77/44
f 57/78/45 56/79/45 61/80/45
f 56/81/46 53/82/46 62/83/46
f 53/82/47 63/84/47 62/83/47
f 66/85/48 52/86/48 67/87/48
f 47/88/49 74/89/49 63/84/49
f 44/90/50 43/91/50 41/92/50
f 55/93/51 40/94/51 61/95/51
f 43/91/52 44/90/52 68/96/52
f 41/92/53 48/97/53 44/90/53
f 38/98/54 72/99/54 73/100/54
f 49/70/55 39/101/55 70/102/55
f 39/101/56 49/70/56 54/72/56
f 44/90/57 38/98/57 68/96/57
f 51/103/58 38/98/58 67/104/58
f 71/105/59 41/92/59 61/106/59
f 48/97/60 38/98/60 44/90/60
f 60/107/61 46/108/61 54/109/61
f 59/110/62 62/83/62 63/84/62
f 56/79/63 41/111/63 64/112/63
f 65/113/64 41/92/64 43/91/64
f 70/114/65 45/115/65 74/89/65
f 66/85/66 58/116/66 52/86/66
f 73/100/67 69/117/67 38/98/67
f 70/118/68 74/119/68 66/85/68
f 72/120/69 60/121/69 54/72/69
f 45/115/70 63/84/70 74/89/70
f 47/88/71 66/122/71 74/89/71
f 46/108/72 45/115/72 39/123/72
f 55/124/73 46/108/73 60/107/73
f 61/125/74 62/83/74 46/108/74
f 51/126/75 53/73/75 65/127/75
f 50/69/76 73/128/76 72/120/76
f 47/74/77 42/129/77 58/130/77
f 38/98/78 71/105/78 72/99/78
f 71/131/79 55/132/79 72/120/79
f 70/118/80 67/87/80 69/133/80
f 14/38/81 31/29/81 1/31/81
f 1/31/82 32/51/82 30/19/82
f 30/19/83 15/18/83 14/38/83
f 24/12/84 3/26/84 34/39/84
f 34/39/85 11/30/85 4/24/85
f 4/24/86 20/10/86 24/12/86
f 11/30/87 34/39/87 1/40/87
f 22/43/88 9/56/88 25/15/88
f 27/44/89 19/11/89 20/10/89
f 28/45/90 27/8/90 4/46/90
f 33/36/91 2/35/91 8/48/91
f 17/4/92 13/1/92 35/53/92
f 35/53/93 18/59/93 23/41/93
f 8/54/94 22/43/94 26/16/94
f 10/55/95 21/134/95 29/52/95
f 2/57/96 17/135/96 9/56/96
f 9/56/97 22/43/97 8/54/97
f 24/58/98 9/42/98 23/41/98
f 24/60/99 19/13/99 25/15/99
f 14/61/100 15/136/100 21/64/100
f 5/63/101 10/6/101 16/5/101
f 14/61/102 21/64/102 5/63/102
f 6/47/103 31/137/103 14/61/103
f 16/5/104 27/8/104 28/45/104
f 28/45/105 6/47/105 14/61/105
f 14/61/106 5/63/106 16/5/106
f 13/1/107 32/3/107 36/62/107
f 34/39/108 3/26/108 18/25/108
f 32/68/109 12/34/109 33/36/109
f 33/36/110 29/52/110 30/67/110
f 51/103/111 68/96/111 38/98/111
f 38/98/112 69/117/112 67/104/112
f 67/104/113 52/138/113 51/103/113
f 61/106/114 40/139/114 71/105/114
f 71/105/115 48/97/115 41/92/115
f 41/92/116 57/140/116 61/106/116
f 48/97/117 71/105/117 38/98/117
f 59/110/118 46/108/118 62/83/118
f 56/79/119 57/78/119 41/111/119
f 65/113/120 64/141/120 41/92/120
f 70/114/121 39/123/121 45/115/121
f 54/72/122 50/69/122 72/120/122
f 72/120/123 55/132/123 60/121/123
f 45/115/124 59/110/124 63/84/124
f 47/88/125 58/142/125 66/122/125
f 39/123/126 54/109/126 46/108/126
f 46/108/127 59/110/127 45/115/127
f 55/124/128 61/125/128 46/108/128
f 61/125/129 56/81/129 62/83/129
f 51/126/130 52/143/130 58/130/130
f 42/129/131 47/74/131 53/73/131
f 51/126/132 58/130/132 42/129/132
f 43/144/133 68/145/133 51/126/133
f 53/73/134 64/76/134 65/127/134
f 65/127/135 43/144/135 51/126/135
f 51/126/136 42/129/136 53/73/136
f 50/69/137 69/71/137 73/128/137
f 71/131/138 40/146/138 55/132/138
f 69/133/139 49/147/139 70/118/139
f 70/118/140 66/85/140 67/87/140
