# Blender 4.2.2 LTS
# www.blender.org
mtllib KeyHole.mtl
o éµç©´
v 0.012269 -0.185284 2.281897
v -0.012269 -0.185284 2.257359
v -0.012269 -0.185284 2.281897
v 0.019438 -0.099374 2.250190
v 0.022579 -0.118340 2.247049
v -0.022579 -0.118340 2.247049
v 0.012269 -0.185284 2.257359
v 0.015706 -0.185359 2.276354
v 0.016890 -0.185242 2.269628
v 0.015706 -0.185359 2.262902
v -0.006725 -0.185359 2.285334
v -0.000000 -0.185242 2.286518
v 0.006725 -0.185359 2.285334
v -0.015706 -0.185359 2.262902
v -0.016890 -0.185242 2.269628
v -0.015706 -0.185359 2.276354
v 0.006725 -0.185359 2.253922
v 0.000000 -0.185242 2.252738
v -0.006725 -0.185359 2.253922
v 0.012926 -0.087332 2.260270
v 0.017510 -0.089025 2.273541
v 0.009449 -0.087379 2.282586
v 0.024753 -0.099017 2.259111
v 0.026369 -0.098681 2.269628
v 0.024753 -0.099017 2.280145
v 0.019438 -0.099374 2.289066
v 0.028912 -0.118187 2.257103
v 0.031134 -0.118066 2.269628
v 0.028912 -0.118187 2.282153
v -0.007481 -0.085831 2.273914
v -0.003955 -0.088747 2.286748
v -0.015312 -0.089322 2.280513
v 0.010517 -0.099017 2.294381
v -0.000000 -0.098681 2.295997
v -0.010517 -0.099017 2.294381
v -0.019438 -0.099374 2.289066
v 0.012525 -0.118187 2.298540
v -0.000000 -0.118066 2.300762
v -0.012525 -0.118187 2.298540
v -0.017510 -0.089025 2.265715
v -0.009358 -0.087332 2.256702
v -0.024753 -0.099017 2.280145
v -0.026369 -0.098681 2.269628
v -0.024753 -0.099017 2.259111
v -0.019438 -0.099374 2.250190
v -0.028912 -0.118187 2.282153
v -0.031134 -0.118066 2.269628
v -0.028912 -0.118187 2.257103
v 0.003913 -0.089025 2.252119
v -0.010517 -0.099017 2.244875
v -0.000000 -0.098681 2.243259
v 0.010517 -0.099017 2.244875
v -0.012525 -0.118187 2.240716
v 0.000000 -0.118066 2.238494
v 0.012525 -0.118187 2.240716
v 0.022579 -0.118340 2.292207
v -0.022579 -0.118340 2.292207
v 0.030204 -0.312892 2.282652
v -0.000190 -0.312131 2.304795
v -0.031682 -0.313018 2.260185
v 0.025604 -0.309498 2.244026
v 0.025602 -0.309498 2.295232
v -0.025602 -0.309498 2.244024
v -0.025604 -0.309498 2.295230
v -0.032893 -0.311556 2.284037
v -0.035135 -0.308650 2.269628
v -0.032787 -0.308390 2.255593
v 0.014118 -0.310596 2.302577
v -0.014102 -0.309604 2.302507
v -0.014118 -0.310596 2.236679
v 0.014035 -0.308390 2.236841
v 0.032893 -0.311553 2.255221
v 0.035196 -0.309953 2.269627
v 0.032787 -0.308390 2.283663
v 0.001472 -0.311662 2.234450
vn 0.7065 -0.0328 0.7069
vn -0.7065 -0.0328 -0.7069
vn -0.7069 -0.0329 0.7066
vn 0.6322 0.4392 -0.6383
vn 0.7071 0.0060 -0.7071
vn -0.7071 0.0060 -0.7071
vn 0.7070 -0.0328 -0.7065
vn 0.9343 -0.0297 0.3552
vn 0.9995 -0.0323 -0.0005
vn 0.9344 -0.0306 -0.3550
vn -0.3552 -0.0299 0.9343
vn 0.0001 -0.0323 0.9995
vn 0.3552 -0.0303 0.9343
vn -0.9343 -0.0297 -0.3552
vn -0.9995 -0.0322 0.0005
vn -0.9344 -0.0306 0.3550
vn 0.3552 -0.0297 -0.9343
vn -0.0003 -0.0321 -0.9995
vn -0.3552 -0.0303 -0.9343
vn 0.3954 0.8774 -0.2716
vn 0.5676 0.8159 0.1103
vn 0.2787 0.8729 0.4004
vn 0.8383 0.4478 -0.3110
vn 0.8942 0.4476 -0.0117
vn 0.8362 0.4405 0.3267
vn 0.6385 0.4388 0.6322
vn 0.9325 0.0100 -0.3610
vn 0.9999 0.0133 -0.0000
vn 0.9325 0.0100 0.3610
vn -0.1369 0.9876 0.0768
vn -0.1076 0.8255 0.5541
vn -0.4918 0.8041 0.3341
vn 0.3086 0.4495 0.8383
vn 0.0131 0.4516 0.8921
vn -0.3241 0.4397 0.8376
vn -0.6323 0.4276 0.6460
vn 0.3610 0.0100 0.9325
vn -0.0000 0.0133 0.9999
vn -0.3610 0.0100 0.9325
vn -0.5704 0.8136 -0.1124
vn -0.2723 0.8734 -0.4039
vn -0.8461 0.4358 0.3069
vn -0.8950 0.4460 0.0101
vn -0.8362 0.4405 -0.3267
vn -0.6383 0.4392 -0.6322
vn -0.9325 0.0100 0.3610
vn -0.9999 0.0133 -0.0000
vn -0.9325 0.0100 -0.3610
vn 0.1107 0.8155 -0.5681
vn -0.3110 0.4478 -0.8383
vn -0.0117 0.4476 -0.8942
vn 0.3267 0.4405 -0.8362
vn -0.3610 0.0100 -0.9325
vn -0.0000 0.0133 -0.9999
vn 0.3610 0.0100 -0.9325
vn 0.7071 0.0060 0.7071
vn -0.7071 0.0060 0.7071
vn 0.5233 -0.8263 0.2081
vn -0.0100 -0.4692 0.8831
vn -0.6097 -0.7780 -0.1517
vn 0.6427 -0.3494 -0.6818
vn 0.6656 -0.3164 0.6759
vn -0.6643 -0.3337 -0.6688
vn -0.6430 -0.3502 0.6811
vn -0.8293 -0.4431 0.3404
vn -0.9819 -0.1893 -0.0003
vn -0.9141 -0.1643 -0.3708
vn 0.3434 -0.3849 0.8567
vn -0.3611 -0.3462 0.8659
vn -0.3295 -0.4038 -0.8534
vn 0.3690 -0.2371 -0.8987
vn 0.8278 -0.4488 -0.3367
vn 0.9510 -0.3093 0.0041
vn 0.9219 -0.1592 0.3531
vn 0.0261 -0.4648 -0.8850
vt 0.377079 0.000000
vt 0.624873 0.058266
vt 0.378818 0.062500
vt 0.624695 0.187500
vt 0.379628 0.250000
vt 0.379837 0.187500
vt 0.624818 0.312500
vt 0.379877 0.312500
vt 0.624820 0.437500
vt 0.379628 0.500000
vt 0.379877 0.437500
vt 0.626465 0.558261
vt 0.379877 0.562500
vt 0.624985 0.687500
vt 0.379628 0.750000
vt 0.379877 0.687500
vt 0.624878 0.812500
vt 0.379837 0.812500
vt 0.624780 0.937500
vt 0.377079 1.000000
vt 0.378819 0.937500
vt 0.624993 0.125000
vt 0.625000 0.189881
vt 0.185034 0.609760
vt 0.137525 0.625000
vt 0.136879 0.574484
vt 0.273800 0.609370
vt 0.215181 0.578687
vt 0.265248 0.562120
vt 0.307139 0.583422
vt 0.250000 0.512525
vt 0.300516 0.511879
vt 0.314967 0.640241
vt 0.361158 0.625000
vt 0.362162 0.676626
vt 0.234759 0.689966
vt 0.250000 0.737475
vt 0.199484 0.738121
vt 0.853788 0.527649
vt 0.633554 0.669664
vt 0.724836 0.513718
vt 0.875000 0.729738
vt 0.775539 0.750000
vt 0.375000 0.563731
vt 0.624992 0.883352
vt 0.625000 1.000000
vt 0.625387 0.625000
vt 0.379523 0.625000
vt 0.625255 0.750000
vt 0.624998 0.376650
vt 0.379523 0.375000
vt 0.625255 0.500000
vt 0.379191 0.875000
vt 0.379191 0.125000
vt 0.624971 0.250000
vt 0.375000 0.625000
vt 0.375000 0.686269
vt 0.375000 0.747704
vt 0.375000 0.313731
vt 0.375000 0.375000
vt 0.375000 0.436269
vt 0.375000 0.497704
vt 0.375000 0.813731
vt 0.375000 0.875000
vt 0.375000 0.936269
vt 0.375000 0.997704
vt 0.136879 0.675516
vt 0.203892 0.659471
vt 0.148028 0.738949
vt 0.148028 0.511052
vt 0.375000 0.063731
vt 0.375000 0.011923
vt 0.375000 0.002296
vt 0.375000 0.125000
vt 0.375000 0.068703
vt 0.375000 0.181297
vt 0.375000 0.125000
vt 0.375000 0.186269
vt 0.375000 0.238077
vt 0.199484 0.511879
vt 0.375000 0.261923
vt 0.375000 0.252812
vt 0.375000 0.318703
vt 0.375000 0.431297
vt 0.375000 0.375000
vt 0.375000 0.488077
vt 0.362162 0.573374
vt 0.284471 0.671108
vt 0.363949 0.520464
vt 0.351972 0.738949
vt 0.375000 0.502812
vt 0.363949 0.729537
vt 0.300516 0.738121
vt 0.375000 0.761923
vt 0.375000 0.752812
vt 0.375000 0.818703
vt 0.375000 0.931297
vt 0.375000 0.875000
vt 0.375000 0.988077
vt 0.375000 0.247704
vt 0.631389 0.670163
vt 0.625000 0.000000
s 1
f 7/1/7 10/3/10 72/2/72
f 74/4/74 8/6/8 1/5/1
f 1/5/1 13/8/13 68/7/68
f 69/9/69 11/11/11 3/10/3
f 3/10/3 16/13/16 65/12/65
f 67/14/67 14/16/14 2/15/2
f 2/15/2 19/18/19 70/17/70
f 71/19/71 17/21/17 7/20/7
f 73/22/73 74/4/74 58/23/58
f 73/22/73 58/23/58 72/2/72
f 21/24/21 25/26/25 24/25/24
f 30/27/30 31/29/31 22/28/22
f 30/27/30 32/30/32 31/29/31
f 31/29/31 35/32/35 34/31/34
f 40/33/40 44/35/44 43/34/43
f 49/36/49 52/38/52 51/37/51
f 58/39/58 59/41/59 60/40/60
f 58/39/58 75/43/75 72/42/72
f 46/44/46 16/13/16 3/10/3
f 75/45/75 61/46/61 72/46/72
f 66/47/66 67/14/67 60/40/60
f 66/47/66 60/40/60 65/12/65
f 65/12/65 15/48/15 66/47/66
f 2/15/2 63/49/63 67/14/67
f 68/7/68 12/51/12 59/50/59
f 3/10/3 64/52/64 69/9/69
f 70/17/70 18/53/18 75/45/75
f 7/20/7 61/46/61 71/19/71
f 72/2/72 9/54/9 73/22/73
f 1/5/1 62/55/62 74/4/74
f 10/3/10 9/54/9 72/2/72
f 9/54/9 8/6/8 74/4/74
f 13/8/13 12/51/12 68/7/68
f 12/51/12 11/11/11 69/9/69
f 16/13/16 15/48/15 65/12/65
f 15/48/15 14/16/14 67/14/67
f 19/18/19 18/53/18 70/17/70
f 18/53/18 17/21/17 71/19/71
f 47/56/47 15/48/15 16/13/16
f 47/56/47 48/57/48 14/16/14
f 48/57/48 6/58/6 2/15/2
f 37/59/37 13/8/13 1/5/1
f 74/4/74 62/55/62 58/23/58
f 38/60/38 12/51/12 13/8/13
f 38/60/38 39/61/39 11/11/11
f 39/61/39 57/62/57 3/10/3
f 53/63/53 19/18/19 2/15/2
f 54/64/54 18/53/18 19/18/19
f 54/64/54 55/65/55 17/21/17
f 55/65/55 5/66/5 7/20/7
f 21/24/21 24/25/24 23/67/23
f 30/27/30 22/28/22 20/68/20
f 22/28/22 21/24/21 20/68/20
f 20/68/20 23/67/23 4/69/4
f 26/70/26 25/26/25 21/24/21
f 27/71/27 5/73/5 4/72/4
f 28/74/28 27/71/27 23/75/23
f 28/74/28 24/77/24 25/76/25
f 29/78/29 25/76/25 26/79/26
f 34/31/34 33/80/33 22/28/22
f 22/28/22 33/80/33 26/70/26
f 35/32/35 31/29/31 32/30/32
f 37/59/37 56/82/56 26/81/26
f 38/60/38 37/59/37 33/83/33
f 38/60/38 34/85/34 35/84/35
f 39/61/39 35/84/35 36/86/36
f 43/34/43 42/87/42 32/30/32
f 30/27/30 40/33/40 32/30/32
f 41/88/41 40/33/40 30/27/30
f 32/30/32 42/87/42 36/89/36
f 45/90/45 44/35/44 40/33/40
f 46/44/46 57/91/57 36/89/36
f 47/56/47 46/44/46 42/87/42
f 47/56/47 43/34/43 44/35/44
f 48/57/48 44/35/44 45/92/45
f 49/36/49 51/37/51 50/93/50
f 30/27/30 20/68/20 41/88/41
f 20/68/20 49/36/49 41/88/41
f 41/88/41 50/93/50 45/90/45
f 4/69/4 52/38/52 49/36/49
f 53/63/53 6/95/6 45/94/45
f 54/64/54 53/63/53 50/96/50
f 54/64/54 51/98/51 52/97/52
f 55/65/55 52/97/52 4/99/4
f 27/71/27 10/3/10 7/1/7
f 28/74/28 9/54/9 10/3/10
f 28/74/28 29/78/29 8/6/8
f 29/78/29 56/100/56 1/5/1
f 65/12/65 59/50/59 69/9/69
f 60/40/60 75/43/75 58/39/58
f 65/12/65 60/40/60 59/41/59
f 70/17/70 60/101/60 63/49/63
f 70/17/70 75/45/75 60/101/60
f 71/19/71 61/46/61 75/45/75
f 68/7/68 58/23/58 62/55/62
f 68/7/68 59/50/59 58/23/58
f 67/14/67 63/49/63 60/40/60
f 67/14/67 66/47/66 15/48/15
f 3/10/3 65/12/65 64/52/64
f 69/9/69 59/50/59 12/51/12
f 1/5/1 68/7/68 62/55/62
f 71/19/71 75/45/75 18/53/18
f 2/15/2 70/17/70 63/49/63
f 74/4/74 73/22/73 9/54/9
f 7/1/7 72/2/72 61/102/61
f 46/44/46 3/10/3 57/62/57
f 47/56/47 16/13/16 46/44/46
f 47/56/47 14/16/14 15/48/15
f 48/57/48 2/15/2 14/16/14
f 37/59/37 1/5/1 56/100/56
f 38/60/38 13/8/13 37/59/37
f 38/60/38 11/11/11 12/51/12
f 39/61/39 3/10/3 11/11/11
f 53/63/53 2/15/2 6/58/6
f 54/64/54 19/18/19 53/63/53
f 54/64/54 17/21/17 18/53/18
f 55/65/55 7/20/7 17/21/17
f 21/24/21 23/67/23 20/68/20
f 26/70/26 21/24/21 22/28/22
f 27/71/27 4/72/4 23/75/23
f 28/74/28 23/75/23 24/77/24
f 28/74/28 25/76/25 29/78/29
f 29/78/29 26/79/26 56/100/56
f 34/31/34 22/28/22 31/29/31
f 35/32/35 32/30/32 36/89/36
f 37/59/37 26/81/26 33/83/33
f 38/60/38 33/83/33 34/85/34
f 38/60/38 35/84/35 39/61/39
f 39/61/39 36/86/36 57/62/57
f 43/34/43 32/30/32 40/33/40
f 45/90/45 40/33/40 41/88/41
f 46/44/46 36/89/36 42/87/42
f 47/56/47 42/87/42 43/34/43
f 47/56/47 44/35/44 48/57/48
f 48/57/48 45/92/45 6/58/6
f 49/36/49 50/93/50 41/88/41
f 4/69/4 49/36/49 20/68/20
f 53/63/53 45/94/45 50/96/50
f 54/64/54 50/96/50 51/98/51
f 54/64/54 52/97/52 55/65/55
f 55/65/55 4/99/4 5/66/5
f 27/71/27 7/1/7 5/73/5
f 28/74/28 10/3/10 27/71/27
f 28/74/28 8/6/8 9/54/9
f 29/78/29 1/5/1 8/6/8
f 65/12/65 69/9/69 64/52/64
