# Blender 4.2.2 LTS
# www.blender.org
mtllib LeftProtrution.mtl
o 突起物（左）
v 0.415801 0.944377 1.466114
v 0.823418 0.983388 1.160209
v 0.682336 0.659705 1.461586
v 0.275271 0.248767 1.220708
v 0.202234 0.450438 0.847700
v 0.135098 0.392175 1.165942
v 0.188406 0.524060 1.279567
v 0.668622 0.687606 0.945076
v 0.747533 0.563965 1.048973
v 0.291166 0.411506 0.812506
v 0.293862 0.472733 1.341056
v 0.784809 1.059216 1.197497
v 0.713218 1.041527 1.347091
v 0.195891 0.625302 1.100610
v 0.194513 0.675138 0.967138
v 0.402871 0.195594 0.943241
v 0.844400 0.933927 1.168917
v 0.744845 0.748161 1.460310
v 0.480088 0.193671 1.132486
v 0.495709 0.253871 1.224919
v 0.181486 0.519853 0.820010
v 0.685593 0.559167 0.950681
v 0.811671 0.835710 1.214454
v 0.685498 0.527053 1.366600
v 0.551236 0.289165 0.953084
v 0.527986 0.356263 0.871984
v 0.241199 0.189708 1.130716
v 0.170178 0.273672 1.113957
v 0.347647 0.815474 0.919966
v 0.317600 0.860791 1.002059
v 0.176905 0.569214 1.224353
v 0.467686 1.038133 1.249258
v 0.717061 1.026177 1.122637
v 0.592066 0.813423 1.546432
v 0.638480 0.949995 1.554293
v 0.456352 0.975587 1.476099
v 0.539825 0.806778 0.925019
vn -0.0509 0.9943 0.0932
vn 0.8456 0.3017 0.4404
vn 0.1093 -0.4729 -0.8743
vn 0.0167 -0.9997 -0.0170
vn 0.7030 -0.6444 0.3009
vn 0.5304 -0.8174 -0.2247
vn 0.4381 -0.6269 -0.6443
vn -0.6546 0.5345 -0.5346
vn 0.2654 0.1058 -0.9583
vn -0.6274 -0.3470 0.6971
vn 0.6351 -0.4396 0.6351
vn -0.9460 0.1247 0.2991
vn -0.5921 -0.3428 0.7293
vn -0.3659 0.1835 0.9124
vn 0.4679 0.5703 -0.6752
vn 0.9070 0.4051 0.1154
vn -0.8651 0.2847 0.4130
vn -0.8674 0.4883 0.0956
vn 0.0491 -0.5196 0.8530
vn -0.5326 -0.0856 0.8420
vn 0.9565 -0.2785 0.0867
vn 0.7562 -0.3810 -0.5320
vn 0.0090 -0.8376 0.5463
vn -0.6859 -0.4529 0.5696
vn 0.4596 0.3600 -0.8119
vn -0.6593 0.5455 -0.5174
vn -0.6273 0.7582 0.1777
vn 0.0493 0.6462 -0.7616
vn 0.8783 -0.0737 0.4724
vn 0.2487 0.1068 -0.9627
vn 0.0368 0.2521 -0.9670
vn 0.8034 0.0125 -0.5953
vn 0.9388 -0.3129 0.1438
vn 0.7963 -0.5988 0.0859
vn -0.5888 0.0124 -0.8082
vn -0.0391 0.9192 0.3919
vn -0.4912 -0.4454 -0.7485
vn -0.3688 0.0720 0.9267
vn 0.4179 -0.1931 0.8877
vn -0.2055 0.8500 -0.4850
vn -0.8654 0.4927 0.0906
vn -0.8037 0.5916 0.0635
vn -0.8335 0.5148 0.2008
vn -0.2297 -0.5702 0.7887
vn -0.0728 -0.4674 0.8810
vn -0.0064 -0.4569 0.8895
vn -0.4774 -0.1078 0.8720
vn 0.7857 -0.3952 -0.4758
vn 0.0099 -0.8387 0.5446
vn -0.6827 -0.4650 0.5636
vn 0.4378 0.3677 -0.8205
vn 0.8455 0.3037 0.4391
vn 0.8862 0.3044 0.3493
vn 0.4288 0.0172 -0.9032
vn 0.1637 0.2322 -0.9588
vn 0.5858 0.1071 -0.8033
vn 0.8408 0.0878 -0.5341
vn 0.9389 -0.3112 0.1472
vn 0.8372 -0.5452 0.0418
vn -0.9980 0.0546 0.0307
vn -0.5081 -0.6230 -0.5947
vn -0.9628 -0.2331 0.1370
vn -0.9695 0.2419 -0.0391
vn -0.5924 -0.6068 -0.5299
vn -0.7901 0.0345 -0.6120
vn -0.7980 -0.5049 0.3291
vn -0.1163 0.9590 0.2586
vn 0.3871 -0.2608 0.8844
vn -0.1138 0.9429 -0.3131
vn -0.1849 0.8302 -0.5260
vt 0.493090 0.882913
vt 0.430391 0.901542
vt 0.360150 0.724451
vt 0.409122 0.934731
vt 0.486763 0.298555
vt 0.427972 0.365933
vt 0.425084 0.259109
vt 0.588336 0.364465
vt 0.576738 0.233725
vt 0.600706 0.192358
vt 0.586888 0.101652
vt 0.462605 0.227744
vt 0.359215 0.626448
vt 0.437121 0.585056
vt 0.406595 0.638783
vt 0.276051 0.523818
vt 0.266629 0.644424
vt 0.159015 0.538899
vt 0.619183 0.455817
vt 0.593619 0.466784
vt 0.609183 0.370303
vt 0.593942 0.041273
vt 0.612157 0.392173
vt 0.618742 0.550772
vt 0.638048 0.575082
vt 0.596897 0.579623
vt 0.681250 0.550000
vt 0.713739 0.587383
vt 0.590079 0.790272
vt 0.593105 0.876777
vt 0.589076 0.793959
vt 0.217143 0.742711
vt 0.188432 0.730893
vt 0.241473 0.727820
vt 0.169664 0.734553
vt 0.512833 0.580986
vt 0.613982 0.887950
vt 0.455088 0.034707
vt 0.125908 0.624424
vt 0.308012 0.368042
vt 0.149486 0.613724
vt 0.592691 0.343788
vt 0.581529 0.421397
vt 0.590591 0.498287
vt 0.190971 0.634667
vt 0.378612 0.551810
vt 0.474780 0.745322
vt 0.435775 0.121426
vt 0.330304 0.516170
vt 0.343234 0.536877
vt 0.615625 0.040625
vt 0.596898 0.949310
vt 0.424887 0.516752
vt 0.437993 0.461136
vt 0.611411 0.061634
s 0
usemtl マテリアル.016
f 13/1/1 12/2/1 32/3/1
f 13/1/2 17/4/2 12/2/2
f 16/5/3 10/6/3 26/7/3
f 27/8/4 16/5/4 19/9/4
f 20/10/5 19/9/5 24/11/5
f 19/9/6 16/5/6 25/12/6
f 16/5/7 26/7/7 25/12/7
f 29/13/8 15/14/8 30/15/8
f 10/16/9 37/17/9 26/18/9
f 7/19/10 6/20/10 4/21/10
f 18/22/11 3/23/11 24/11/11
f 6/24/12 7/25/12 31/26/12
f 4/27/13 11/28/13 7/25/13
f 1/29/14 35/30/14 36/31/14
f 12/32/15 2/33/15 33/34/15
f 2/33/16 12/32/16 17/35/16
f 7/25/17 1/29/17 31/26/17
f 14/36/18 1/29/18 30/15/18
f 34/37/19 4/21/19 24/11/19
f 11/28/20 1/29/20 7/25/20
f 23/38/21 9/39/21 17/40/21
f 22/41/22 25/12/22 26/18/22
f 27/42/23 20/10/23 4/21/23
f 28/43/24 4/21/24 6/44/24
f 33/34/25 8/45/25 37/17/25
f 29/13/26 21/46/26 15/14/26
f 36/31/27 32/47/27 1/29/27
f 33/34/28 37/17/28 29/13/28
f 35/30/29 23/38/29 17/4/29
f 8/45/30 26/18/30 37/17/30
f 10/16/31 29/13/31 37/17/31
f 9/39/32 8/45/32 2/33/32
f 24/11/33 23/38/33 18/22/33
f 24/11/34 25/12/34 9/48/34
f 14/36/35 16/5/35 28/43/35
f 13/1/36 36/31/36 35/30/36
f 10/16/37 5/49/37 21/50/37
f 1/29/38 34/37/38 35/30/38
f 34/51/39 18/52/39 35/30/39
f 33/34/40 30/15/40 32/3/40
f 14/36/41 31/26/41 1/29/41
f 1/29/42 32/47/42 30/15/42
f 30/15/43 15/14/43 14/36/43
f 24/11/44 3/23/44 34/37/44
f 34/37/45 11/28/45 4/21/45
f 4/21/46 20/10/46 24/11/46
f 11/28/47 34/37/47 1/29/47
f 22/41/48 9/39/48 25/12/48
f 27/42/49 19/9/49 20/10/49
f 28/43/50 27/8/50 4/21/50
f 33/34/51 2/33/51 8/45/51
f 17/4/52 13/1/52 35/30/52
f 35/30/53 18/22/53 23/38/53
f 8/45/54 22/41/54 26/18/54
f 10/16/55 21/50/55 29/13/55
f 2/33/56 17/40/56 9/39/56
f 9/39/57 22/41/57 8/45/57
f 24/11/58 9/48/58 23/38/58
f 24/11/59 19/9/59 25/12/59
f 14/36/60 15/14/60 21/53/60
f 5/54/61 10/6/61 16/5/61
f 14/36/62 21/53/62 5/54/62
f 6/44/63 31/26/63 14/36/63
f 16/5/64 27/8/64 28/43/64
f 28/43/65 6/44/65 14/36/65
f 14/36/66 5/54/66 16/5/66
f 13/1/67 32/47/67 36/31/67
f 34/51/68 3/55/68 18/52/68
f 32/3/69 12/32/69 33/34/69
f 33/34/70 29/13/70 30/15/70
