# Blender 4.2.2 LTS
# www.blender.org
mtllib LeftHand.mtl
o 左手
v -0.733194 -1.260436 0.564127
v -0.599310 -1.270154 0.847858
v -0.613078 -1.171555 0.538847
v -0.746978 -0.953320 0.543968
v -0.807776 -0.979852 0.840346
v -0.812559 -0.990745 0.595348
v -0.796621 -1.059153 0.556727
v -0.646211 -1.118786 0.901579
v -0.602472 -1.090102 0.811589
v -0.773501 -0.967604 0.868864
v -0.750410 -1.055121 0.517737
v -0.617404 -1.300709 0.834522
v -0.635304 -1.306430 0.715603
v -0.810248 -1.076911 0.706498
v -0.821127 -1.079776 0.810909
v -0.709409 -0.909359 0.742879
v -0.587415 -1.253887 0.833018
v -0.596299 -1.210159 0.570740
v -0.670936 -0.937491 0.623007
v -0.664872 -0.972940 0.575927
v -0.822001 -1.001490 0.873223
v -0.630179 -1.071570 0.869109
v -0.590140 -1.219207 0.772619
v -0.606948 -1.109499 0.572978
v -0.660404 -0.957948 0.781407
v -0.678078 -0.972051 0.850365
v -0.759889 -0.917168 0.586817
v -0.793393 -0.941789 0.607976
v -0.776638 -1.139768 0.901040
v -0.787046 -1.164710 0.850545
v -0.807000 -1.068890 0.604207
v -0.731608 -1.274203 0.745130
v -0.644029 -1.273734 0.868059
v -0.653772 -1.233679 0.503564
v -0.646068 -1.290571 0.538345
v -0.719846 -1.276757 0.570969
v -0.704024 -1.152002 0.924753
v -1.439161 -1.069100 0.507256
v -0.868049 -1.331184 0.451746
v -0.887921 -0.921450 0.582932
v -1.133066 -0.959721 0.984343
v -1.312512 -1.386397 0.999298
v -1.410590 -1.084318 0.963391
v -1.442062 -1.044833 0.847047
v -0.850977 -1.387107 0.712087
v -0.676748 -1.232601 0.726895
v -1.160951 -1.393344 1.003868
v -1.273718 -0.960370 0.827226
v -0.976108 -1.337066 0.412454
v -1.082969 -1.202055 0.401976
v -1.473427 -1.249182 0.839556
v -1.489226 -1.389741 0.849634
v -0.884839 -1.169387 1.051007
v -0.808003 -1.298718 0.469633
v -0.861613 -0.961130 0.518182
v -0.805919 -0.998492 0.978426
v -0.837925 -0.945517 0.916836
v -1.382760 -1.444972 0.975876
v -0.743520 -1.319877 0.773980
v -0.793771 -1.213934 0.518977
v -0.781982 -0.940955 0.678325
v -0.747014 -1.196741 0.955730
v -0.811460 -1.301046 0.948744
v -1.127206 -1.012191 1.049991
v -1.276894 -1.071112 1.030384
v -1.367787 -1.488990 0.743565
v -1.450404 -1.440631 0.705882
v -1.479716 -1.115340 0.841321
v -1.399871 -1.300394 0.501202
v -1.035380 -1.390714 0.469884
v -1.124589 -0.925989 0.504236
v -1.153362 -0.981606 0.416063
v -1.406276 -1.072890 0.476241
v -1.101958 -1.469121 0.691330
vn -0.2912 -0.9524 0.0897
vn 0.8364 -0.5389 -0.1000
vn 0.1319 0.8725 0.4705
vn 0.2729 0.9524 -0.1359
vn 0.9050 0.3877 -0.1753
vn 0.6837 0.7281 0.0486
vn 0.5426 0.7848 0.2996
vn -0.9247 -0.2293 0.3039
vn 0.1940 0.3508 0.9162
vn -0.6789 0.2346 -0.6957
vn 0.9271 0.1061 -0.3594
vn -0.9683 -0.0951 -0.2312
vn -0.6410 0.2117 -0.7378
vn -0.4119 -0.6177 -0.6699
vn 0.3800 -0.5497 0.7439
vn 0.8402 -0.5353 0.0866
vn -0.9177 -0.2988 -0.2619
vn -0.9362 -0.3463 -0.0603
vn 0.4845 0.2805 -0.8286
vn -0.6173 -0.2223 -0.7547
vn 0.9957 0.0926 0.0083
vn 0.8335 0.4591 0.3075
vn 0.3855 0.7592 -0.5244
vn -0.6960 0.4223 -0.5808
vn 0.4543 -0.1823 0.8720
vn -0.9242 -0.2441 0.2937
vn -0.7647 -0.6431 -0.0422
vn -0.3426 -0.5301 0.7756
vn 0.9631 -0.2122 -0.1653
vn 0.1638 0.3566 0.9198
vn -0.2775 0.1814 0.9434
vn 0.8800 0.1086 0.4623
vn 0.9941 0.1057 -0.0256
vn 0.9188 0.3916 -0.0491
vn -0.8174 0.4025 0.4121
vn -0.2151 -0.9738 -0.0741
vn -0.5294 0.7956 0.2946
vn -0.4023 -0.5166 -0.7558
vn 0.7773 -0.2482 -0.5781
vn -0.5826 -0.6972 0.4177
vn -0.2191 -0.2466 -0.9440
vn 0.2866 0.1535 -0.9457
vn 0.2617 -0.4968 0.8274
vn 0.1945 0.3060 0.9320
vn 0.7317 0.6562 0.1842
vn 0.5774 0.0785 0.8127
vn 0.4838 -0.3526 0.8010
vn -0.5479 -0.8241 0.1438
vn 0.2859 -0.9175 0.2764
vn -0.4015 0.8287 0.3899
vn 0.4482 0.8318 -0.3276
vn -0.8329 0.4150 0.3662
vn -0.3884 0.8548 0.3441
vn -0.3968 0.7607 -0.5137
vn 0.2348 -0.8193 -0.5230
vn 0.3451 -0.1257 -0.9301
vn -0.8799 0.4733 -0.0413
vn -0.9920 -0.0347 -0.1211
vn 0.0079 0.9975 0.0702
vn -0.4538 0.8886 -0.0673
vn 0.8689 0.1319 -0.4772
vn 0.7830 -0.5078 0.3591
vn 0.1031 0.7815 0.6154
vn -0.3671 0.7183 0.5910
vn 0.3194 -0.9194 -0.2295
vn -0.5643 -0.8170 0.1184
vn -0.6888 -0.0982 -0.7183
vn 0.0052 -0.9431 -0.3324
vn 0.4739 0.3821 -0.7933
vn 0.2759 -0.9172 0.2875
vn 0.1219 -0.9591 0.2555
vn 0.6596 -0.7248 -0.1989
vn 0.8597 0.2293 -0.4564
vn 0.9051 0.3634 0.2210
vn -0.1933 -0.6101 0.7684
vn -0.2279 -0.0105 -0.9736
vn -0.0434 -0.3256 0.9445
vn -0.3826 0.8327 -0.4003
vn 0.1388 0.8165 -0.5604
vn -0.2418 -0.7716 -0.5884
vn -0.9356 -0.3485 -0.0570
vn -0.9014 -0.4323 -0.0250
vn -0.9049 -0.4124 -0.1056
vn 0.0283 0.4796 -0.8770
vn 0.2883 0.2298 -0.9296
vn 0.3948 0.1869 -0.8996
vn -0.5406 -0.2283 -0.8097
vn 0.8570 0.4378 0.2718
vn 0.3863 0.7601 -0.5226
vn -0.6878 0.4393 -0.5779
vn 0.4168 -0.1866 0.8896
vn 0.8357 -0.5402 -0.0991
vn 0.8580 -0.5113 -0.0491
vn 0.4807 0.3802 0.7902
vn -0.0405 0.1843 0.9820
vn 0.6800 0.1562 0.7163
vn 0.9001 -0.0061 0.4356
vn 0.9943 0.1031 -0.0270
vn 0.9355 0.3529 -0.0166
vn -0.9924 0.0697 -0.1015
vn -0.4554 0.8735 0.1722
vn -0.9309 0.3036 -0.2030
vn -0.9965 -0.0751 -0.0375
vn -0.5323 0.8364 0.1303
vn -0.9219 0.2967 0.2492
vn -0.7560 0.5364 -0.3750
vn -0.3194 -0.9476 -0.0077
vn 0.7772 -0.1641 -0.6075
vn -0.4446 -0.8366 0.3200
vn -0.5745 -0.6806 0.4546
vn -0.9909 -0.0449 -0.1265
vn -0.9312 -0.1495 -0.3323
vn -0.9537 0.0865 -0.2882
vn -0.1290 0.9336 0.3342
vn -0.0810 0.9944 0.0684
vn -0.0462 0.9989 0.0083
vn -0.4130 0.9058 -0.0943
vn 0.8275 -0.4573 0.3258
vn 0.1041 0.7801 0.6169
vn -0.3595 0.7130 0.6020
vn 0.3059 -0.9265 -0.2191
vn 0.2862 0.1518 -0.9461
vn 0.3239 0.0840 -0.9423
vn 0.4048 -0.8790 0.2521
vn 0.1990 -0.9604 0.1948
vn 0.4800 -0.8770 -0.0195
vn 0.6354 -0.6818 -0.3626
vn 0.8564 0.2322 -0.4612
vn 0.9546 0.2690 0.1277
vn -0.7292 0.1301 0.6719
vn -0.0371 -0.1618 0.9861
vn -0.5233 0.3102 0.7937
vn -0.8640 -0.0472 0.5013
vn -0.0822 -0.1204 0.9893
vn -0.3580 -0.4697 0.8070
vn -0.3516 0.5052 0.7881
vn -0.2649 -0.1125 -0.9577
vn 0.1413 0.8686 -0.4749
vn -0.2138 -0.5940 -0.7755
vn -0.2180 -0.8038 -0.5535
vt 0.940963 0.671433
vt 0.955701 0.729890
vt 0.859688 0.681664
vt 0.990846 0.730446
vt 0.879085 0.911235
vt 0.937211 0.835181
vt 0.937230 0.912317
vt 0.800858 0.867545
vt 0.827384 0.932900
vt 0.782389 0.017759
vt 0.803308 0.036951
vt 0.720446 0.032957
vt 0.905055 0.932748
vt 0.629301 0.936948
vt 0.664243 0.900466
vt 0.648230 0.944285
vt 0.173760 0.640995
vt 0.102418 0.700230
vt 0.103243 0.593565
vt 0.943723 0.214129
vt 0.940585 0.246824
vt 0.869854 0.254902
vt 0.671159 0.039349
vt 0.685921 0.019589
vt 0.773129 0.860258
vt 0.790043 0.891711
vt 0.764625 0.894620
vt 0.899954 0.209820
vt 0.943723 0.115404
vt 0.873797 0.090253
vt 0.936738 0.106280
vt 0.022555 0.731532
vt 0.012623 0.706405
vt 0.045036 0.731602
vt 0.977033 0.737136
vt 0.787840 0.990174
vt 0.715709 0.899409
vt 0.863288 0.116864
vt 0.790493 0.166031
vt 0.684009 0.135814
vt 0.750355 0.144805
vt 0.671975 0.166667
vt 0.761237 0.166667
vt 0.807359 0.114267
vt 0.804010 0.144908
vt 0.873170 0.272727
vt 0.804033 0.234993
vt 0.910603 0.266149
vt 0.063657 0.652913
vt 0.640911 0.868469
vt 0.786860 1.000000
vt 0.703189 1.000000
vt 0.157087 0.731602
vt 0.937550 0.584980
vt 0.995671 0.701033
vt 0.034791 0.614988
vt 0.864029 0.763833
vt 0.809586 0.830304
vt 0.873181 0.597669
vt 0.921405 0.802369
vt 0.937230 0.782109
vt 0.647362 0.000526
vt 0.622674 0.021356
vt 0.935910 0.745032
vt 0.827150 0.730466
vt 0.252825 0.829975
vt 0.187824 0.762179
vt 0.562771 0.792054
vt 0.031332 0.774861
vt 0.120271 0.490383
vt 0.342564 0.268117
vt 0.161554 0.552155
vt 0.128961 0.290250
vt -0.000000 0.552375
vt 0.691603 0.274776
vt 0.658953 0.259229
vt 0.809916 0.258239
vt 0.082208 0.603291
vt 0.588707 0.137141
vt 0.600727 0.033465
vt 0.642271 0.094570
vt 0.368066 0.229125
vt 0.468355 0.348579
vt 0.198133 0.513056
vt 0.616852 0.811824
vt 0.561384 0.784938
vt 0.614502 0.512046
vt 0.867965 0.350959
vt 0.841293 0.350219
vt 0.601672 0.867965
vt 0.665511 0.647375
vt 0.768694 0.861733
vt 0.867965 0.609513
vt 0.787113 0.840203
vt 0.500412 0.537967
vt 0.427701 0.606631
vt 0.513803 0.470743
vt 0.091535 0.761356
vt 0.522644 0.711676
vt 0.339251 0.768398
vt 0.477958 0.623497
vt 0.841488 0.555205
vt 0.036780 0.039260
vt 0.010883 0.154687
vt 0.000460 0.001751
vt 0.233662 0.608810
vt 0.151645 0.573461
vt 0.576207 0.517150
vt 0.552797 0.662514
vt 0.320889 0.537884
vt 0.500222 0.067598
vt 0.516564 0.901002
vt 0.546512 0.903586
vt 0.267178 0.937229
vt 0.001822 0.814501
vt 0.209025 0.683557
vt 0.152103 0.154074
vt 0.155844 0.062206
vt 0.000460 0.253565
vt 0.383947 0.010896
vt 0.216535 0.168864
vt 0.396166 0.144267
vt 0.453515 0.087739
vt 0.683555 0.209440
vt 0.811607 0.139138
vt 0.801671 0.251572
vt 0.995671 0.602830
vt 0.057114 0.620074
vt 0.205628 0.683734
vt 0.005695 0.691761
vt 0.912922 0.753112
vt 0.805156 0.795744
vt 0.815117 0.770228
vt 0.839880 0.755411
vt 0.509082 0.768398
vt 0.354700 0.663617
vt 0.547619 0.657707
vt 0.006007 0.937229
vt 0.386068 0.650191
vt 0.091071 0.281385
vt 0.464099 -0.000000
vt 0.273755 0.059876
vt 0.315736 0.003855
s 0
usemtl マテリアル.009
f 13/1/1 12/2/1 32/3/1
f 13/1/2 17/4/2 12/2/2
f 16/5/3 10/6/3 26/7/3
f 27/8/4 16/5/4 19/9/4
f 20/10/5 19/11/5 24/12/5
f 19/9/6 16/5/6 25/13/6
f 16/5/7 26/7/7 25/13/7
f 29/14/8 15/15/8 30/16/8
f 10/17/9 37/18/9 26/19/9
f 7/20/10 6/21/10 4/22/10
f 18/23/11 3/24/11 24/12/11
f 6/25/12 7/26/12 31/27/12
f 4/22/13 11/28/13 7/20/13
f 1/29/14 35/30/14 36/31/14
f 12/32/15 2/33/15 33/34/15
f 2/35/16 12/2/16 17/4/16
f 7/26/17 1/36/17 31/27/17
f 14/37/18 1/36/18 30/16/18
f 34/38/19 4/22/19 24/39/19
f 11/28/20 1/29/20 7/20/20
f 23/40/21 9/41/21 17/42/21
f 22/43/22 25/44/22 26/45/22
f 27/46/23 20/47/23 4/22/23
f 28/48/24 4/22/24 6/21/24
f 33/34/25 8/49/25 37/18/25
f 29/14/26 21/50/26 15/15/26
f 36/51/27 32/52/27 1/36/27
f 33/34/28 37/18/28 29/53/28
f 35/54/29 23/55/29 17/4/29
f 8/49/30 26/19/30 37/18/30
f 10/17/31 29/53/31 37/18/31
f 9/56/32 8/49/32 2/33/32
f 24/12/33 23/40/33 18/23/33
f 24/12/34 25/44/34 9/41/34
f 14/57/35 16/5/35 28/58/35
f 13/1/36 36/59/36 35/54/36
f 10/6/37 5/60/37 21/61/37
f 1/29/38 34/38/38 35/30/38
f 34/62/39 18/23/39 35/63/39
f 33/64/40 30/65/40 32/3/40
f 50/66/41 49/67/41 69/68/41
f 50/66/42 54/69/42 49/67/42
f 53/70/43 47/71/43 63/72/43
f 64/73/44 53/70/44 56/74/44
f 57/75/45 56/76/45 61/77/45
f 56/74/46 53/70/46 62/78/46
f 53/70/47 63/72/47 62/78/47
f 66/79/48 52/80/48 67/81/48
f 47/82/49 74/83/49 63/84/49
f 44/85/50 43/86/50 41/87/50
f 55/88/51 40/89/51 61/77/51
f 43/86/52 44/85/52 68/90/52
f 41/87/53 48/91/53 44/85/53
f 38/92/54 72/93/54 73/94/54
f 49/95/55 39/96/55 70/97/55
f 39/98/56 49/67/56 54/69/56
f 44/85/57 38/92/57 68/90/57
f 51/99/58 38/100/58 67/101/58
f 71/102/59 41/87/59 61/77/59
f 48/91/60 38/92/60 44/85/60
f 60/103/61 46/104/61 54/105/61
f 59/106/62 62/107/62 63/84/62
f 64/108/63 57/75/63 41/87/63
f 65/109/64 41/87/64 43/86/64
f 70/97/65 45/110/65 74/83/65
f 66/79/66 58/111/66 52/80/66
f 73/112/67 69/68/67 38/113/67
f 70/97/68 74/83/68 66/79/68
f 72/114/69 60/115/69 54/69/69
f 45/110/70 63/84/70 74/83/70
f 47/82/71 66/79/71 74/83/71
f 46/116/72 45/110/72 39/96/72
f 61/117/73 60/103/73 55/118/73
f 61/117/74 62/119/74 46/104/74
f 51/120/75 53/70/75 65/121/75
f 50/66/76 73/112/76 72/114/76
f 47/71/77 42/122/77 58/123/77
f 38/92/78 71/102/78 72/93/78
f 71/102/79 55/88/79 72/93/79
f 70/97/80 67/81/80 69/124/80
f 14/37/81 31/27/81 1/36/81
f 1/36/82 32/52/82 30/16/82
f 30/16/83 15/15/83 14/37/83
f 24/39/84 3/125/84 34/38/84
f 34/38/85 11/28/85 4/22/85
f 4/22/86 20/47/86 24/39/86
f 11/28/87 34/38/87 1/29/87
f 22/43/88 9/41/88 25/44/88
f 27/46/89 19/126/89 20/47/89
f 28/48/90 27/46/90 4/22/90
f 33/34/91 2/33/91 8/49/91
f 17/4/92 13/1/92 35/54/92
f 35/54/93 18/127/93 23/55/93
f 8/49/94 22/128/94 26/19/94
f 10/17/95 21/129/95 29/53/95
f 2/33/96 17/130/96 9/56/96
f 9/56/97 22/128/97 8/49/97
f 24/12/98 9/41/98 23/40/98
f 24/12/99 19/11/99 25/44/99
f 14/57/100 15/131/100 21/61/100
f 5/60/101 10/6/101 16/5/101
f 14/57/102 21/61/102 5/60/102
f 6/132/103 31/133/103 14/57/103
f 16/5/104 27/8/104 28/58/104
f 28/58/105 6/132/105 14/57/105
f 14/57/106 5/60/106 16/5/106
f 13/1/107 32/3/107 36/59/107
f 34/62/108 3/24/108 18/23/108
f 32/3/109 12/2/109 33/64/109
f 33/64/110 29/134/110 30/65/110
f 51/99/111 68/135/111 38/100/111
f 38/100/112 69/136/112 67/101/112
f 67/101/113 52/137/113 51/99/113
f 61/77/114 40/89/114 71/102/114
f 71/102/115 48/91/115 41/87/115
f 41/87/116 57/75/116 61/77/116
f 48/91/117 71/102/117 38/92/117
f 59/106/118 46/116/118 62/107/118
f 64/108/119 56/76/119 57/75/119
f 65/109/120 64/108/120 41/87/120
f 70/97/121 39/96/121 45/110/121
f 54/69/122 50/66/122 72/114/122
f 72/114/123 55/138/123 60/115/123
f 45/110/124 59/106/124 63/84/124
f 47/82/125 58/111/125 66/79/125
f 39/96/126 54/139/126 46/116/126
f 46/116/127 59/106/127 45/110/127
f 61/117/128 46/104/128 60/103/128
f 61/117/129 56/140/129 62/119/129
f 51/120/130 52/141/130 58/123/130
f 42/122/131 47/71/131 53/70/131
f 51/120/132 58/123/132 42/122/132
f 43/142/133 68/143/133 51/120/133
f 53/70/134 64/73/134 65/121/134
f 65/121/135 43/142/135 51/120/135
f 51/120/136 42/122/136 53/70/136
f 50/66/137 69/68/137 73/112/137
f 71/102/138 40/89/138 55/88/138
f 69/124/139 49/95/139 70/97/139
f 70/97/140 66/79/140 67/81/140
