# Blender 4.2.2 LTS
# www.blender.org
mtllib RightFoot.mtl
o 右足
v 0.910247 -1.195649 1.849652
v 0.475676 -0.933290 2.001715
v 0.946145 -0.947316 1.750593
v 0.863270 -1.090596 1.455722
v 0.384037 -1.179144 1.598062
v 0.780392 -1.217550 1.511223
v 0.862128 -1.222592 1.583820
v 0.344188 -0.946024 1.826040
v 0.488207 -0.865504 1.761737
v 0.340076 -1.110216 1.600678
v 0.930640 -1.142990 1.571453
v 0.502187 -0.979819 2.031089
v 0.692399 -1.026254 1.986611
v 0.623557 -1.238905 1.664325
v 0.454640 -1.248644 1.708323
v 0.537561 -0.984674 1.488610
v 0.497204 -0.906772 1.977578
v 0.907005 -0.930829 1.814808
v 0.743220 -0.940904 1.482088
v 0.828816 -0.950199 1.508304
v 0.334490 -1.210232 1.635801
v 0.386898 -0.900735 1.756885
v 0.585274 -0.902972 1.909262
v 0.876471 -0.906349 1.688160
v 0.494983 -0.914670 1.573913
v 0.384962 -0.944923 1.616277
v 0.783301 -1.093570 1.425648
v 0.750540 -1.161310 1.458798
v 0.331221 -1.186207 1.827990
v 0.417250 -1.220544 1.836678
v 0.786644 -1.240260 1.613350
v 0.622635 -1.180071 1.940669
v 0.437509 -1.011990 2.006157
v 1.012622 -1.049682 1.806278
v 0.972111 -1.056814 1.892816
v 0.905306 -1.178281 1.875253
v 0.306786 -1.060319 1.866259
vn 0.1349 -0.3392 0.9310
vn 0.3167 0.5745 0.7547
vn -0.5877 0.2327 -0.7749
vn -0.0984 0.3222 -0.9415
vn 0.1878 0.9416 -0.2793
vn -0.1740 0.7169 -0.6751
vn -0.4266 0.5831 -0.6914
vn -0.3771 -0.9216 0.0919
vn -0.9468 0.2732 -0.1700
vn 0.5094 -0.6016 -0.6153
vn 0.4669 0.8824 0.0580
vn 0.1386 -0.9649 -0.2230
vn 0.5644 -0.5774 -0.5900
vn 0.7444 -0.4770 0.4672
vn -0.4606 0.2711 0.8452
vn 0.1597 0.5904 0.7911
vn 0.2473 -0.9675 0.0533
vn 0.0456 -0.9861 0.1596
vn 0.8063 0.4404 -0.3949
vn 0.7508 -0.6569 -0.0693
vn 0.0996 0.9781 0.1829
vn -0.3522 0.8942 -0.2762
vn 0.3097 0.3992 -0.8630
vn 0.3227 -0.5480 -0.7717
vn -0.7296 0.4268 0.5343
vn -0.3621 -0.9257 0.1096
vn 0.1380 -0.8070 0.5741
vn -0.6278 -0.3354 0.7025
vn 0.3410 0.8056 0.4844
vn -0.9515 0.2467 -0.1837
vn -0.9823 -0.1625 -0.0926
vn -0.3943 0.8895 0.2307
vn 0.1310 0.9788 0.1576
vn 0.0541 0.9665 -0.2510
vn -0.5689 -0.5891 -0.5739
vn 0.2766 -0.2848 0.9178
vn -0.4713 -0.2687 -0.8401
vn 0.8140 -0.4692 0.3424
vn 0.7050 0.5992 0.3794
vn -0.2683 -0.5917 0.7602
vn 0.0429 -0.9856 0.1636
vn 0.0406 -0.9556 0.2918
vn 0.1194 -0.9620 0.2454
vn 0.6812 0.0448 -0.7308
vn 0.8822 0.2418 -0.4041
vn 0.8868 0.3363 -0.3170
vn 0.8104 -0.5836 -0.0511
vn -0.3072 0.9179 -0.2513
vn 0.3078 0.4000 -0.8633
vn 0.3146 -0.5357 -0.7836
vn -0.7495 0.3935 0.5324
vn 0.3161 0.5735 0.7558
vn 0.2722 0.6043 0.7488
vn -0.8274 0.5390 -0.1580
vn -0.9986 0.0477 -0.0229
vn -0.6876 0.7074 0.1639
vn -0.3207 0.8709 0.3723
vn 0.1333 0.9780 0.1607
vn 0.0346 0.9818 -0.1870
vn -0.0513 -0.9152 -0.3997
vn -0.3795 -0.2078 -0.9016
vn -0.0121 -0.7639 -0.6452
vn -0.0744 -0.9744 -0.2121
vn -0.3495 -0.2700 -0.8972
vn -0.4260 -0.7275 -0.5379
vn 0.0949 -0.5441 -0.8336
vn 0.2120 -0.3667 0.9059
vn 0.7270 0.6258 0.2825
vn -0.1089 -0.4628 0.8798
vn -0.3082 -0.5817 0.7527
vt 0.493090 0.882913
vt 0.430391 0.901542
vt 0.360150 0.724451
vt 0.409122 0.934731
vt 0.486763 0.298555
vt 0.427972 0.365933
vt 0.425084 0.259109
vt 0.588336 0.364465
vt 0.576738 0.233725
vt 0.600706 0.192358
vt 0.586888 0.101652
vt 0.462605 0.227744
vt 0.359215 0.626448
vt 0.437121 0.585056
vt 0.406595 0.638783
vt 0.276051 0.523818
vt 0.266629 0.644424
vt 0.159015 0.538899
vt 0.619183 0.455817
vt 0.593619 0.466784
vt 0.609183 0.370303
vt 0.593942 0.041273
vt 0.612157 0.392173
vt 0.618742 0.550772
vt 0.638048 0.575082
vt 0.596897 0.579623
vt 0.681250 0.550000
vt 0.713739 0.587383
vt 0.590079 0.790272
vt 0.593105 0.876777
vt 0.589076 0.793959
vt 0.217143 0.742711
vt 0.188432 0.730893
vt 0.241473 0.727820
vt 0.169664 0.734553
vt 0.512833 0.580986
vt 0.613982 0.887950
vt 0.455088 0.034707
vt 0.125908 0.624424
vt 0.308012 0.368042
vt 0.149486 0.613724
vt 0.592691 0.343788
vt 0.581529 0.421397
vt 0.590591 0.498287
vt 0.190971 0.634667
vt 0.378612 0.551810
vt 0.474780 0.745322
vt 0.435775 0.121426
vt 0.330304 0.516170
vt 0.343234 0.536877
vt 0.615625 0.040625
vt 0.596898 0.949310
vt 0.424887 0.516752
vt 0.437993 0.461136
vt 0.611411 0.061634
s 0
usemtl マテリアル.015
f 13/1/1 12/2/1 32/3/1
f 13/1/2 17/4/2 12/2/2
f 16/5/3 10/6/3 26/7/3
f 27/8/4 16/5/4 19/9/4
f 20/10/5 19/9/5 24/11/5
f 19/9/6 16/5/6 25/12/6
f 16/5/7 26/7/7 25/12/7
f 29/13/8 15/14/8 30/15/8
f 10/16/9 37/17/9 26/18/9
f 7/19/10 6/20/10 4/21/10
f 18/22/11 3/23/11 24/11/11
f 6/24/12 7/25/12 31/26/12
f 4/27/13 11/28/13 7/25/13
f 1/29/14 35/30/14 36/31/14
f 12/32/15 2/33/15 33/34/15
f 2/33/16 12/32/16 17/35/16
f 7/25/17 1/29/17 31/26/17
f 14/36/18 1/29/18 30/15/18
f 34/37/19 4/21/19 24/11/19
f 11/28/20 1/29/20 7/25/20
f 23/38/21 9/39/21 17/40/21
f 22/41/22 25/12/22 26/18/22
f 27/42/23 20/10/23 4/21/23
f 28/43/24 4/21/24 6/44/24
f 33/34/25 8/45/25 37/17/25
f 29/13/26 21/46/26 15/14/26
f 36/31/27 32/47/27 1/29/27
f 33/34/28 37/17/28 29/13/28
f 35/30/29 23/38/29 17/4/29
f 8/45/30 26/18/30 37/17/30
f 10/16/31 29/13/31 37/17/31
f 9/39/32 8/45/32 2/33/32
f 24/11/33 23/38/33 18/22/33
f 24/11/34 25/12/34 9/48/34
f 14/36/35 16/5/35 28/43/35
f 13/1/36 36/31/36 35/30/36
f 10/16/37 5/49/37 21/50/37
f 1/29/38 34/37/38 35/30/38
f 34/51/39 18/52/39 35/30/39
f 33/34/40 30/15/40 32/3/40
f 14/36/41 31/26/41 1/29/41
f 1/29/42 32/47/42 30/15/42
f 30/15/43 15/14/43 14/36/43
f 24/11/44 3/23/44 34/37/44
f 34/37/45 11/28/45 4/21/45
f 4/21/46 20/10/46 24/11/46
f 11/28/47 34/37/47 1/29/47
f 22/41/48 9/39/48 25/12/48
f 27/42/49 19/9/49 20/10/49
f 28/43/50 27/8/50 4/21/50
f 33/34/51 2/33/51 8/45/51
f 17/4/52 13/1/52 35/30/52
f 35/30/53 18/22/53 23/38/53
f 8/45/54 22/41/54 26/18/54
f 10/16/55 21/50/55 29/13/55
f 2/33/56 17/40/56 9/39/56
f 9/39/57 22/41/57 8/45/57
f 24/11/58 9/48/58 23/38/58
f 24/11/59 19/9/59 25/12/59
f 14/36/60 15/14/60 21/53/60
f 5/54/61 10/6/61 16/5/61
f 14/36/62 21/53/62 5/54/62
f 6/44/63 31/26/63 14/36/63
f 16/5/64 27/8/64 28/43/64
f 28/43/65 6/44/65 14/36/65
f 14/36/66 5/54/66 16/5/66
f 13/1/67 32/47/67 36/31/67
f 34/51/68 3/55/68 18/52/68
f 32/3/69 12/32/69 33/34/69
f 33/34/70 29/13/70 30/15/70
