# Blender 4.2.2 LTS
# www.blender.org
mtllib LeftFoot.mtl
o 左足
v -0.895891 -1.220000 1.505418
v -0.397797 -0.970491 1.453037
v -0.962701 -0.980400 1.576829
v -0.970429 -1.087038 1.955615
v -0.431181 -1.163875 1.969727
v -0.868093 -1.207511 1.935844
v -0.929770 -1.221338 1.826057
v -0.317178 -0.962885 1.698704
v -0.485693 -0.887486 1.712677
v -0.384568 -1.097853 1.974039
v -1.003988 -1.148286 1.807353
v -0.416221 -1.017530 1.415959
v -0.626930 -1.064480 1.406072
v -0.658141 -1.234370 1.818989
v -0.469890 -1.240820 1.828499
v -0.623059 -0.978299 2.018522
v -0.427467 -0.944442 1.469916
v -0.902022 -0.968822 1.515728
v -0.837316 -0.944454 1.950032
v -0.917562 -0.958554 1.891913
v -0.368324 -1.194287 1.947625
v -0.382754 -0.916297 1.757109
v -0.539867 -0.938504 1.516478
v -0.910097 -0.934206 1.666845
v -0.551916 -0.918195 1.928615
v -0.425131 -0.945940 1.922022
v -0.897275 -1.084325 2.017563
v -0.853400 -1.149330 1.999061
v -0.304492 -1.187632 1.728408
v -0.390823 -1.223758 1.692849
v -0.842621 -1.237519 1.820655
v -0.570128 -1.202182 1.499705
v -0.357409 -1.043178 1.470152
v -1.014458 -1.083449 1.502568
v -0.945487 -1.095809 1.419365
v -0.882657 -1.205667 1.476151
v -0.266546 -1.071931 1.679117
vn 0.1536 -0.5115 -0.8454
vn -0.0918 0.5822 -0.8078
vn 0.3525 0.3860 0.8525
vn -0.1934 0.4926 0.8485
vn -0.2397 0.9660 0.0966
vn -0.0376 0.8442 0.5347
vn 0.1950 0.7371 0.6470
vn 0.3532 -0.9313 0.0887
vn 0.8561 0.3566 0.3740
vn -0.6467 -0.6218 0.4416
vn -0.3965 0.8900 -0.2251
vn -0.1655 -0.9627 0.2142
vn -0.6914 -0.5990 0.4039
vn -0.5657 -0.6102 -0.5546
vn 0.7124 0.2406 -0.6592
vn 0.0730 0.5996 -0.7970
vn -0.1839 -0.9827 -0.0235
vn 0.0133 -0.9984 -0.0558
vn -0.8590 0.5044 0.0875
vn -0.6897 -0.7201 -0.0759
vn -0.0478 0.9698 -0.2390
vn 0.2194 0.9489 0.2270
vn -0.5549 0.5415 0.6316
vn -0.5330 -0.5572 0.6367
vn 0.8418 0.4456 -0.3047
vn 0.3445 -0.9360 0.0719
vn 0.0420 -0.9047 -0.4240
vn 0.8014 -0.4369 -0.4086
vn -0.1845 0.8150 -0.5494
vn 0.8597 0.3290 0.3906
vn 0.9223 -0.1509 0.3558
vn 0.3925 0.9063 -0.1569
vn -0.0808 0.9706 -0.2267
vn -0.1199 0.9874 0.1036
vn 0.3858 -0.5994 0.7014
vn 0.0077 -0.4557 -0.8901
vn 0.2263 -0.2217 0.9485
vn -0.6642 -0.5864 -0.4635
vn -0.5606 0.6137 -0.5559
vn 0.4667 -0.7199 -0.5137
vn 0.0165 -0.9982 -0.0583
vn 0.0512 -0.9862 -0.1577
vn -0.0268 -0.9898 -0.1401
vn -0.8821 0.1136 0.4572
vn -0.9517 0.2920 0.0948
vn -0.9228 0.3852 0.0111
vn -0.7491 -0.6528 -0.1131
vn 0.1859 0.9632 0.1940
vn -0.5532 0.5424 0.6322
vn -0.5307 -0.5433 0.6505
vn 0.8629 0.4098 -0.2959
vn -0.0909 0.5812 -0.8087
vn -0.0498 0.6145 -0.7873
vn 0.7147 0.6331 0.2974
vn 0.9560 0.0841 0.2809
vn 0.6528 0.7572 -0.0211
vn 0.3712 0.8829 -0.2875
vn -0.0820 0.9698 -0.2296
vn -0.0871 0.9945 0.0584
vn -0.0516 -0.9145 0.4012
vn 0.1117 -0.1431 0.9834
vn -0.1623 -0.7773 0.6079
vn 0.0188 -0.9665 0.2559
vn 0.0821 -0.2212 0.9718
vn 0.2520 -0.7405 0.6230
vn -0.3371 -0.5495 0.7645
vn 0.0692 -0.5413 -0.8380
vn -0.6006 0.6436 -0.4745
vn 0.3676 -0.6206 -0.6926
vn 0.5013 -0.7074 -0.4984
vt 0.493090 0.882913
vt 0.430391 0.901542
vt 0.360150 0.724451
vt 0.409122 0.934731
vt 0.486763 0.298555
vt 0.427972 0.365933
vt 0.425084 0.259109
vt 0.588336 0.364465
vt 0.576738 0.233725
vt 0.600706 0.192358
vt 0.586888 0.101652
vt 0.462605 0.227744
vt 0.359215 0.626448
vt 0.437121 0.585056
vt 0.406595 0.638783
vt 0.276051 0.523818
vt 0.266629 0.644424
vt 0.159015 0.538899
vt 0.619183 0.455817
vt 0.593619 0.466784
vt 0.609183 0.370303
vt 0.593942 0.041273
vt 0.612157 0.392173
vt 0.618742 0.550772
vt 0.638048 0.575082
vt 0.596897 0.579623
vt 0.681250 0.550000
vt 0.713739 0.587383
vt 0.590079 0.790272
vt 0.593105 0.876777
vt 0.589076 0.793959
vt 0.217143 0.742711
vt 0.188432 0.730893
vt 0.241473 0.727820
vt 0.169664 0.734553
vt 0.512833 0.580986
vt 0.613982 0.887950
vt 0.455088 0.034707
vt 0.125908 0.624424
vt 0.308012 0.368042
vt 0.149486 0.613724
vt 0.592691 0.343788
vt 0.581529 0.421397
vt 0.590591 0.498287
vt 0.190971 0.634667
vt 0.378612 0.551810
vt 0.474780 0.745322
vt 0.435775 0.121426
vt 0.330304 0.516170
vt 0.343234 0.536877
vt 0.615625 0.040625
vt 0.596898 0.949310
vt 0.424887 0.516752
vt 0.437993 0.461136
vt 0.611411 0.061634
s 0
usemtl マテリアル.012
f 13/1/1 12/2/1 32/3/1
f 13/1/2 17/4/2 12/2/2
f 16/5/3 10/6/3 26/7/3
f 27/8/4 16/5/4 19/9/4
f 20/10/5 19/9/5 24/11/5
f 19/9/6 16/5/6 25/12/6
f 16/5/7 26/7/7 25/12/7
f 29/13/8 15/14/8 30/15/8
f 10/16/9 37/17/9 26/18/9
f 7/19/10 6/20/10 4/21/10
f 18/22/11 3/23/11 24/11/11
f 6/24/12 7/25/12 31/26/12
f 4/27/13 11/28/13 7/25/13
f 1/29/14 35/30/14 36/31/14
f 12/32/15 2/33/15 33/34/15
f 2/33/16 12/32/16 17/35/16
f 7/25/17 1/29/17 31/26/17
f 14/36/18 1/29/18 30/15/18
f 34/37/19 4/21/19 24/11/19
f 11/28/20 1/29/20 7/25/20
f 23/38/21 9/39/21 17/40/21
f 22/41/22 25/12/22 26/18/22
f 27/42/23 20/10/23 4/21/23
f 28/43/24 4/21/24 6/44/24
f 33/34/25 8/45/25 37/17/25
f 29/13/26 21/46/26 15/14/26
f 36/31/27 32/47/27 1/29/27
f 33/34/28 37/17/28 29/13/28
f 35/30/29 23/38/29 17/4/29
f 8/45/30 26/18/30 37/17/30
f 10/16/31 29/13/31 37/17/31
f 9/39/32 8/45/32 2/33/32
f 24/11/33 23/38/33 18/22/33
f 24/11/34 25/12/34 9/48/34
f 14/36/35 16/5/35 28/43/35
f 13/1/36 36/31/36 35/30/36
f 10/16/37 5/49/37 21/50/37
f 1/29/38 34/37/38 35/30/38
f 34/51/39 18/52/39 35/30/39
f 33/34/40 30/15/40 32/3/40
f 14/36/41 31/26/41 1/29/41
f 1/29/42 32/47/42 30/15/42
f 30/15/43 15/14/43 14/36/43
f 24/11/44 3/23/44 34/37/44
f 34/37/45 11/28/45 4/21/45
f 4/21/46 20/10/46 24/11/46
f 11/28/47 34/37/47 1/29/47
f 22/41/48 9/39/48 25/12/48
f 27/42/49 19/9/49 20/10/49
f 28/43/50 27/8/50 4/21/50
f 33/34/51 2/33/51 8/45/51
f 17/4/52 13/1/52 35/30/52
f 35/30/53 18/22/53 23/38/53
f 8/45/54 22/41/54 26/18/54
f 10/16/55 21/50/55 29/13/55
f 2/33/56 17/40/56 9/39/56
f 9/39/57 22/41/57 8/45/57
f 24/11/58 9/48/58 23/38/58
f 24/11/59 19/9/59 25/12/59
f 14/36/60 15/14/60 21/53/60
f 5/54/61 10/6/61 16/5/61
f 14/36/62 21/53/62 5/54/62
f 6/44/63 31/26/63 14/36/63
f 16/5/64 27/8/64 28/43/64
f 28/43/65 6/44/65 14/36/65
f 14/36/66 5/54/66 16/5/66
f 13/1/67 32/47/67 36/31/67
f 34/51/68 3/55/68 18/52/68
f 32/3/69 12/32/69 33/34/69
f 33/34/70 29/13/70 30/15/70
