# Blender 4.2.2 LTS
# www.blender.org
mtllib eye.mtl
o 目
v 0.025570 0.401306 -0.209112
v 0.007924 0.572401 -0.244275
v -0.008741 0.542376 -0.207745
v -0.010520 0.438087 -0.187702
v -0.011836 0.382577 -0.225470
v -0.034091 0.576867 -0.269802
v -0.032953 0.482471 -0.187866
v -0.002258 0.582383 -0.273571
v -0.030865 0.559433 -0.230944
v -0.043608 0.526427 -0.206572
v -0.068415 0.505325 -0.211738
v -0.038133 0.417561 -0.202949
v -0.063263 0.454321 -0.202422
v -0.070667 0.416095 -0.225405
v -0.043423 0.389937 -0.229504
v -0.077752 0.528236 -0.235612
v 0.001851 0.584400 -0.309808
v -0.056189 0.560518 -0.252174
v -0.095601 0.483591 -0.234518
v -0.078732 0.399590 -0.255807
v -0.037061 0.369549 -0.258435
v -0.096242 0.525085 -0.266961
v -0.113255 0.484343 -0.289192
v -0.106354 0.461051 -0.254029
v -0.103988 0.435424 -0.265954
v -0.083565 0.549544 -0.302012
v -0.087811 0.398940 -0.288321
v -0.062459 0.566580 -0.291464
v -0.019067 0.359777 -0.283756
v -0.099816 0.524231 -0.316985
v -0.108242 0.482471 -0.331308
v -0.108286 0.437778 -0.316144
v -0.084255 0.398940 -0.322547
v -0.051589 0.369242 -0.296785
v -0.046595 0.572685 -0.321572
v -0.067872 0.543596 -0.352807
v -0.085675 0.504425 -0.364358
v -0.086681 0.460064 -0.370080
v -0.078026 0.417451 -0.360110
v -0.052889 0.381685 -0.344369
v -0.022379 0.582926 -0.299411
v -0.061263 0.482421 -0.391650
v -0.053145 0.430062 -0.389909
v -0.011616 0.576867 -0.338208
v -0.028431 0.559479 -0.363421
v -0.039099 0.525490 -0.389891
v -0.031191 0.482471 -0.405836
v -0.011041 0.448953 -0.407449
v -0.029535 0.417451 -0.392738
v -0.021642 0.383233 -0.365537
v -0.017992 0.361936 -0.324207
v 0.020826 0.506104 -0.403966
v 0.010574 0.479685 -0.409907
v 0.009113 0.543596 -0.384215
v 0.009113 0.398940 -0.384215
v 0.020826 0.436432 -0.403966
v 0.044879 0.415635 -0.385516
v 0.015958 0.369186 -0.345587
v 0.041988 0.543596 -0.374050
v 0.047826 0.514871 -0.389875
v 0.068142 0.479984 -0.388482
v 0.043611 0.382077 -0.353882
v 0.022469 0.572843 -0.344967
v 0.068470 0.543596 -0.352079
v 0.075561 0.439633 -0.377104
v 0.078865 0.414999 -0.356394
v 0.085191 0.524516 -0.352658
v 0.101154 0.482472 -0.348419
v 0.010040 0.358136 -0.305431
v 0.062807 0.562464 -0.325545
v 0.106667 0.448953 -0.328971
v 0.096242 0.417451 -0.326031
v 0.073467 0.390582 -0.329091
v 0.050145 0.370133 -0.312294
v 0.100154 0.525085 -0.306688
v 0.113839 0.486023 -0.298442
v 0.108216 0.435788 -0.291120
v 0.084464 0.396341 -0.275066
v 0.070896 0.560146 -0.286096
v 0.108242 0.460064 -0.261685
v 0.049272 0.369357 -0.279901
v 0.093687 0.525489 -0.258104
v 0.098225 0.484343 -0.239648
v 0.084687 0.416352 -0.241691
v 0.037025 0.571673 -0.257035
v 0.067918 0.551954 -0.253520
v 0.031563 0.581175 -0.294323
v 0.064117 0.525085 -0.218883
v 0.070660 0.482472 -0.207416
v 0.077349 0.440869 -0.217353
v 0.048158 0.381537 -0.244916
v 0.031578 0.552599 -0.223173
v 0.029535 0.525085 -0.200255
v 0.023670 0.479335 -0.184349
v 0.032638 0.437280 -0.192362
v -0.006556 0.505442 -0.187929
v 0.012455 0.369943 -0.245440
v 0.016707 0.359816 -0.280792
vn 0.2316 -0.6031 0.7633
vn 0.0485 0.8827 0.4674
vn -0.0652 0.6256 0.7774
vn -0.0926 -0.2874 0.9533
vn -0.0946 -0.7593 0.6439
vn -0.2895 0.9274 0.2368
vn -0.2880 0.0833 0.9540
vn -0.0075 0.9775 0.2107
vn -0.2698 0.7700 0.5782
vn -0.3806 0.4866 0.7864
vn -0.5981 0.2723 0.7538
vn -0.3059 -0.4698 0.8281
vn -0.5660 -0.1401 0.8124
vn -0.6468 -0.4517 0.6145
vn -0.3930 -0.7098 0.5846
vn -0.6775 0.5125 0.5276
vn 0.0321 0.9926 -0.1173
vn -0.5212 0.7573 0.3936
vn -0.8305 0.1059 0.5469
vn -0.6859 -0.6380 0.3500
vn -0.3333 -0.8826 0.3316
vn -0.8471 0.4653 0.2568
vn -0.9906 0.1155 0.0732
vn -0.9203 -0.0945 0.3796
vn -0.9075 -0.3297 0.2603
vn -0.7259 0.6864 -0.0431
vn -0.7673 -0.6371 0.0739
vn -0.5443 0.8366 0.0625
vn -0.1528 -0.9813 0.1171
vn -0.8729 0.4494 -0.1899
vn -0.9449 0.0868 -0.3157
vn -0.9416 -0.2857 -0.1780
vn -0.7367 -0.6347 -0.2332
vn -0.4744 -0.8803 -0.0072
vn -0.4208 0.8773 -0.2310
vn -0.6017 0.6302 -0.4908
vn -0.7457 0.3010 -0.5945
vn -0.7708 -0.1062 -0.6282
vn -0.6885 -0.4721 -0.5505
vn -0.4644 -0.7742 -0.4300
vn -0.2178 0.9757 -0.0229
vn -0.5434 0.0960 -0.8340
vn -0.4697 -0.3556 -0.8081
vn -0.1067 0.9192 -0.3791
vn -0.2440 0.7675 -0.5928
vn -0.3350 0.4656 -0.8191
vn -0.2672 0.1030 -0.9581
vn -0.1219 -0.2002 -0.9721
vn -0.2433 -0.4999 -0.8312
vn -0.2037 -0.7638 -0.6125
vn -0.1706 -0.9524 -0.2525
vn 0.1661 0.3099 -0.9362
vn 0.1111 0.0616 -0.9919
vn 0.0594 0.6328 -0.7720
vn 0.0748 -0.6379 -0.7665
vn 0.2007 -0.2859 -0.9370
vn 0.4016 -0.4893 -0.7741
vn 0.1270 -0.8936 -0.4305
vn 0.3746 0.6335 -0.6771
vn 0.4454 0.3870 -0.8074
vn 0.5850 0.0721 -0.8078
vn 0.3880 -0.7664 -0.5119
vn 0.2058 0.8780 -0.4321
vn 0.5797 0.6474 -0.4948
vn 0.6635 -0.2536 -0.7039
vn 0.6947 -0.4927 -0.5241
vn 0.7513 0.4440 -0.4883
vn 0.8844 0.0972 -0.4565
vn 0.1039 -0.9903 -0.0922
vn 0.5542 0.7949 -0.2469
vn 0.9351 -0.1842 -0.3027
vn 0.8451 -0.4744 -0.2465
vn 0.6521 -0.7115 -0.2616
vn 0.4439 -0.8854 -0.1381
vn 0.8739 0.4766 -0.0961
vn 0.9907 0.1353 -0.0146
vn 0.9463 -0.3184 0.0566
vn 0.7413 -0.6508 0.1640
vn 0.6312 0.7717 0.0781
vn 0.9449 -0.1044 0.3103
vn 0.4364 -0.8884 0.1427
vn 0.8281 0.4539 0.3291
vn 0.8592 0.1268 0.4957
vn 0.7308 -0.4788 0.4864
vn 0.3338 0.8798 0.3385
vn 0.5873 0.7067 0.3946
vn 0.2876 0.9576 0.0142
vn 0.5722 0.4572 0.6808
vn 0.6018 0.1033 0.7920
vn 0.6590 -0.2696 0.7021
vn 0.4335 -0.7663 0.4742
vn 0.2799 0.7139 0.6419
vn 0.2673 0.4505 0.8518
vn 0.2167 0.0660 0.9740
vn 0.3071 -0.2920 0.9058
vn -0.0614 0.3011 0.9516
vn 0.1072 -0.8917 0.4398
vn 0.1485 -0.9766 0.1553
vt 0.302139 0.475447
vt 0.324747 0.536854
vt 0.239622 0.497792
vt 0.230341 0.224821
vt 0.206200 0.267171
vt 0.160746 0.216608
vt 0.256950 0.597045
vt 0.269103 0.652920
vt 0.154256 0.629893
vt 0.362272 0.291102
vt 0.421402 0.276456
vt 0.419714 0.346925
vt 0.335815 0.608379
vt 0.922056 0.499793
vt 0.965328 0.474179
vt 0.936247 0.560537
vt 0.014572 0.284005
vt 0.048366 0.249882
vt 0.088079 0.299092
vt 0.336871 0.147718
vt 0.382335 0.170665
vt 0.357458 0.225951
vt 0.100000 0.225043
vt 0.480889 0.261210
vt 0.483041 0.340466
vt 0.560984 0.309100
vt 0.546333 0.214560
vt 0.874671 0.448024
vt 0.918561 0.438556
vt 0.636020 0.285693
vt 0.599955 0.346925
vt -0.000000 0.211030
vt 0.032892 0.164049
vt 0.454421 0.201014
vt 0.597408 0.185936
vt 0.640387 0.181534
vt 0.383875 0.095768
vt 0.481668 0.135821
vt 0.004430 0.104562
vt 0.064046 0.107250
vt 0.433871 0.071804
vt 0.569754 0.108067
vt 0.727142 0.783041
vt 0.698975 0.743919
vt 0.727142 0.684354
vt 0.494043 0.048432
vt 0.574685 0.040993
vt 0.065276 0.028325
vt 0.114824 0.064248
vt 0.216007 0.160965
vt 0.150930 0.307283
vt 0.131375 0.152930
vt 0.190857 0.080670
vt 0.411313 0.385917
vt 0.472359 0.426493
vt 0.398725 0.471468
vt 0.336871 0.414840
vt 0.363421 0.052669
vt 0.437117 0.000000
vt 0.853392 0.394272
vt 0.917224 0.384154
vt 0.554221 0.406012
vt 0.555949 0.496652
vt 0.462657 0.506073
vt 0.384718 0.565547
vt 0.336871 0.515593
vt 0.621873 0.383318
vt 0.665361 0.444755
vt 0.621139 0.457890
vt 0.494208 0.562113
vt 0.459706 0.624398
vt 0.471363 0.679815
vt 0.388194 0.614335
vt 0.833345 0.346925
vt 0.796680 0.422749
vt 0.396608 0.681006
vt 0.280796 0.031148
vt 0.326479 0.099686
vt 0.262090 0.091250
vt 0.290120 0.172758
vt 0.532403 0.629325
vt 0.714732 0.414792
vt 0.746704 0.363973
vt 0.585937 0.614514
vt 0.590255 0.695083
vt 0.771150 0.055936
vt 0.777080 0.132882
vt 0.676049 0.135278
vt 0.719982 0.178149
vt 0.627017 0.633831
vt 0.800682 0.190760
vt 0.825366 0.256049
vt 0.751314 0.261435
vt 0.336871 0.192602
vt 0.292558 0.263139
vt 0.866124 -0.000000
vt 0.869243 0.071749
vt 0.816749 0.312041
vt 0.888937 0.143510
vt 0.668630 0.503783
vt 0.758311 0.501110
vt 0.703907 0.589519
vt 0.961654 0.099708
vt 0.942725 0.194973
vt 0.867206 0.204170
vt 0.850992 0.505224
vt 0.792946 0.571042
vt 0.923317 0.283771
vt 1.000000 0.174981
vt 0.770953 0.656271
vt 0.002225 0.397843
vt 0.100283 0.350305
vt 0.079058 0.421679
vt 0.984828 0.274189
vt 0.881415 0.572800
vt 0.248099 0.307348
vt 0.284859 0.350305
vt 0.197246 0.350305
vt 0.045822 0.551692
vt 0.071731 0.641515
vt 0.000000 0.582250
vt 0.830007 0.621688
vt 0.857234 0.684354
vt 0.098204 0.517933
vt 0.915518 0.628440
vt 0.181171 0.380198
vt 0.247617 0.357118
vt 0.250923 0.410409
vt 0.116612 0.690247
vt 0.186485 0.563433
vt 0.980738 0.613901
vt 0.315315 0.409408
vt 0.994939 0.545888
vt 0.181623 0.690247
vt 0.676049 0.237129
vt 0.648030 0.091556
vt 0.667369 0.786426
vt 0.667369 0.684354
vt 0.698975 0.737457
vt 0.487716 0.346925
vt 0.170067 0.013579
vt 0.241860 0.000000
vt 0.634491 0.545425
vt 0.667369 0.584898
vt 0.676049 0.219671
vt 0.705454 0.476700
vt 0.676929 0.058305
vt 0.667369 0.412021
vt 0.764359 0.000261
vt 0.953310 0.029395
vt 0.667369 0.637216
vt 0.024922 0.453219
vt 0.149316 0.451551
vt 0.865529 0.338425
s 1
usemtl マテリアル.002
f 96/1/96 7/2/7 94/3/94
f 69/4/69 98/5/98 29/6/29
f 4/7/4 12/8/12 1/9/1
f 3/10/3 10/11/10 96/12/96
f 7/2/7 13/13/13 4/7/4
f 8/14/8 6/15/6 2/16/2
f 12/17/12 15/18/15 5/19/5
f 6/20/6 18/21/18 9/22/9
f 5/19/5 15/18/15 21/23/21
f 10/11/10 11/24/11 7/25/7
f 13/26/13 11/24/11 19/27/19
f 8/14/8 17/28/17 41/29/41
f 13/26/13 14/30/14 12/31/12
f 14/32/14 20/33/20 15/18/15
f 11/24/11 16/34/16 19/27/19
f 19/27/19 24/35/24 13/26/13
f 24/35/24 25/36/25 14/30/14
f 6/20/6 28/37/28 18/21/18
f 16/34/16 18/21/18 22/38/22
f 20/33/20 25/39/25 27/40/27
f 28/37/28 26/41/26 18/21/18
f 19/27/19 22/38/22 23/42/23
f 6/43/6 41/44/41 35/45/35
f 23/42/23 30/46/30 31/47/31
f 27/40/27 32/48/32 33/49/33
f 69/4/69 29/6/29 51/50/51
f 29/6/29 97/51/97 21/23/21
f 34/52/34 33/49/33 40/53/40
f 29/6/29 34/52/34 51/50/51
f 40/53/40 51/50/51 34/52/34
f 31/54/31 37/55/37 38/56/38
f 31/54/31 38/56/38 32/57/32
f 35/58/35 36/59/36 26/41/26
f 41/29/41 44/60/44 35/61/35
f 36/62/36 46/63/46 37/55/37
f 37/55/37 46/63/46 42/64/42
f 38/56/38 43/65/43 39/66/39
f 35/67/35 44/68/44 45/69/45
f 35/67/35 45/69/45 36/62/36
f 36/62/36 45/69/45 46/63/46
f 42/64/42 46/63/46 47/70/47
f 47/70/47 48/71/48 43/65/43
f 48/71/48 56/72/56 49/73/49
f 45/74/45 44/60/44 63/75/63
f 49/73/49 56/72/56 55/76/55
f 49/77/49 55/78/55 50/79/50
f 50/79/50 55/78/55 58/80/58
f 50/79/50 58/80/58 51/50/51
f 53/81/53 56/72/56 48/71/48
f 63/75/63 59/82/59 54/83/54
f 58/80/58 69/4/69 51/50/51
f 53/81/53 52/84/52 61/85/61
f 44/60/44 17/28/17 63/75/63
f 61/86/61 65/87/65 56/88/56
f 56/88/56 65/87/65 57/89/57
f 52/84/52 60/90/60 61/85/61
f 57/89/57 65/87/65 66/91/66
f 66/91/66 73/92/73 62/93/62
f 62/94/62 74/95/74 58/80/58
f 61/86/61 67/96/67 68/97/68
f 62/93/62 73/92/73 74/98/74
f 68/97/68 71/99/71 65/87/65
f 67/100/67 70/101/70 75/102/75
f 76/103/76 77/104/77 71/99/71
f 71/99/71 77/104/77 72/105/72
f 70/101/70 87/106/87 79/107/79
f 72/105/72 77/104/77 78/108/78
f 72/105/72 78/108/78 73/92/73
f 76/103/76 80/109/80 77/104/77
f 75/102/75 79/107/79 82/110/82
f 76/111/76 82/112/82 83/113/83
f 80/109/80 84/114/84 77/104/77
f 87/106/87 85/115/85 79/107/79
f 81/116/81 78/117/78 91/118/91
f 84/119/84 91/120/91 78/121/78
f 82/110/82 86/122/86 88/123/88
f 84/119/84 90/124/90 1/9/1
f 85/115/85 92/125/92 86/122/86
f 91/118/91 97/51/97 81/116/81
f 87/106/87 17/28/17 8/14/8
f 88/126/88 92/127/92 93/128/93
f 91/120/91 1/9/1 97/129/97
f 94/3/94 4/7/4 95/130/95
f 92/125/92 2/16/2 3/131/3
f 93/128/93 3/132/3 96/1/96
f 16/34/16 9/22/9 18/21/18
f 94/3/94 7/2/7 4/7/4
f 3/131/3 2/16/2 9/133/9
f 1/9/1 12/8/12 5/134/5
f 97/51/97 5/19/5 21/23/21
f 7/25/7 96/12/96 10/11/10
f 4/7/4 13/13/13 12/8/12
f 2/16/2 6/15/6 9/133/9
f 3/10/3 9/22/9 10/11/10
f 15/18/15 12/17/12 14/32/14
f 7/25/7 11/24/11 13/26/13
f 8/14/8 41/29/41 6/15/6
f 34/52/34 20/33/20 27/40/27
f 10/11/10 16/34/16 11/24/11
f 15/18/15 20/33/20 21/23/21
f 13/26/13 24/35/24 14/30/14
f 19/27/19 16/34/16 22/38/22
f 29/6/29 21/23/21 34/52/34
f 20/135/20 14/30/14 25/36/25
f 22/38/22 18/21/18 26/41/26
f 25/36/25 23/42/23 32/136/32
f 24/35/24 19/27/19 23/42/23
f 40/53/40 49/77/49 50/79/50
f 6/137/6 35/138/35 28/139/28
f 27/40/27 25/39/25 32/48/32
f 22/38/22 26/41/26 30/46/30
f 23/42/23 22/38/22 30/46/30
f 34/52/34 27/40/27 33/49/33
f 23/42/23 31/47/31 32/136/32
f 28/37/28 35/58/35 26/41/26
f 30/46/30 26/41/26 36/59/36
f 30/140/30 36/62/36 37/55/37
f 31/54/31 30/140/30 37/55/37
f 32/57/32 38/56/38 39/66/39
f 33/49/33 32/48/32 39/141/39
f 33/49/33 39/141/39 40/53/40
f 38/56/38 37/55/37 42/64/42
f 38/56/38 42/64/42 43/65/43
f 39/141/39 43/142/43 40/53/40
f 41/29/41 17/28/17 44/60/44
f 52/84/52 47/70/47 46/63/46
f 40/53/40 50/79/50 51/50/51
f 42/64/42 47/70/47 43/65/43
f 43/65/43 48/71/48 49/73/49
f 45/74/45 63/75/63 54/83/54
f 46/63/46 45/69/45 54/143/54
f 46/63/46 54/143/54 52/84/52
f 60/90/60 54/143/54 59/144/59
f 47/70/47 53/81/53 48/71/48
f 55/145/55 56/88/56 57/89/57
f 55/145/55 57/89/57 62/93/62
f 58/80/58 55/78/55 62/94/62
f 64/146/64 63/75/63 70/101/70
f 53/147/53 61/86/61 56/88/56
f 60/148/60 64/146/64 67/100/67
f 57/89/57 66/91/66 62/93/62
f 66/91/66 71/99/71 72/105/72
f 61/86/61 60/149/60 67/96/67
f 17/28/17 87/106/87 63/75/63
f 61/86/61 68/97/68 65/87/65
f 58/80/58 74/95/74 69/4/69
f 66/91/66 72/105/72 73/92/73
f 64/146/64 70/101/70 67/100/67
f 75/150/75 68/97/68 67/96/67
f 63/75/63 87/106/87 70/101/70
f 68/97/68 76/103/76 71/99/71
f 78/108/78 74/98/74 73/92/73
f 75/102/75 70/101/70 79/107/79
f 98/5/98 74/95/74 81/116/81
f 88/126/88 83/113/83 82/112/82
f 76/151/76 75/102/75 82/110/82
f 80/152/80 76/111/76 83/113/83
f 78/108/78 77/104/77 84/114/84
f 82/110/82 79/107/79 86/122/86
f 80/152/80 90/124/90 84/119/84
f 79/107/79 85/115/85 86/122/86
f 80/152/80 83/113/83 90/124/90
f 93/128/93 89/153/89 88/126/88
f 83/113/83 89/153/89 90/124/90
f 84/119/84 1/9/1 91/120/91
f 88/123/88 86/122/86 92/125/92
f 81/116/81 97/51/97 98/5/98
f 95/130/95 89/153/89 94/3/94
f 8/14/8 85/115/85 87/106/87
f 1/9/1 90/124/90 95/130/95
f 85/115/85 2/16/2 92/125/92
f 95/130/95 4/7/4 1/9/1
f 93/128/93 92/127/92 3/132/3
f 97/129/97 1/9/1 5/134/5
f 94/3/94 93/128/93 96/1/96
f 29/6/29 98/5/98 97/51/97
f 16/34/16 10/11/10 9/22/9
f 34/52/34 21/23/21 20/33/20
f 25/36/25 24/35/24 23/42/23
f 40/53/40 43/142/43 49/77/49
f 52/84/52 53/81/53 47/70/47
f 60/90/60 52/84/52 54/143/54
f 64/146/64 59/82/59 63/75/63
f 60/148/60 59/82/59 64/146/64
f 66/91/66 65/87/65 71/99/71
f 75/150/75 76/103/76 68/97/68
f 78/108/78 81/154/81 74/98/74
f 98/5/98 69/4/69 74/95/74
f 88/126/88 89/153/89 83/113/83
f 93/128/93 94/3/94 89/153/89
f 95/130/95 90/124/90 89/153/89
f 8/14/8 2/16/2 85/115/85
